<svg xmlns="http://www.w3.org/2000/svg" width="70" height="70" viewBox="0 0 70 70">
  <defs>
    <style>
      .cls-1 {
        fill: #fff;
        opacity: 0;
      }

      .cls-2 {
        fill: #3874ff;
      }
    </style>
  </defs>
  <g id="antenna" transform="translate(3538 19062)">
    <rect id="Rectangle_1033" data-name="Rectangle 1033" class="cls-1" width="70" height="70" transform="translate(-3538 -19062)"/>
    <g id="Group_3682" data-name="Group 3682" transform="translate(-90.345 342.733)">
      <path id="Vector" class="cls-2" d="M1.479,0a1.479,1.479,0,0,0,0,2.959,4.194,4.194,0,0,1,4.19,4.189,1.479,1.479,0,0,0,2.959,0A7.156,7.156,0,0,0,1.479,0Z" transform="translate(-3404.934 -19389.619)"/>
      <path id="Vector-2" data-name="Vector" class="cls-2" d="M1.479,0a1.479,1.479,0,0,0,0,2.959,9.581,9.581,0,0,1,9.57,9.57,1.479,1.479,0,0,0,2.959,0A12.543,12.543,0,0,0,1.479,0Z" transform="translate(-3404.934 -19395)"/>
      <path id="Vector-3" data-name="Vector" class="cls-2" d="M8.7,4.35A4.35,4.35,0,1,1,4.35,0,4.35,4.35,0,0,1,8.7,4.35Z" transform="translate(-3422.615 -19371.891)"/>
      <path id="Vector-4" data-name="Vector" class="cls-2" d="M16.533,11.609,18.91,9.232A1.479,1.479,0,1,0,16.818,7.14L14.441,9.517,5.227.3A1.036,1.036,0,0,0,3.71.359,15.836,15.836,0,0,0,.746,15.389a7.3,7.3,0,0,1,11.064,5.9,7.265,7.265,0,0,1-.961,3.989A15.789,15.789,0,0,0,25.558,22.2a1.035,1.035,0,0,0,.055-1.516Z" transform="translate(-3422.776 -19389.191)"/>
      <path id="Vector-5" data-name="Vector" class="cls-2" d="M14.183,0a7.289,7.289,0,0,1-5.37,2.358A7.288,7.288,0,0,1,3.475.034L0,8.627H17.585Z" transform="translate(-3427.079 -19362.592)"/>
      <path id="Vector-6" data-name="Vector" class="cls-2" d="M28.465,0H1.77a1.77,1.77,0,1,0,0,3.539h26.7a1.77,1.77,0,0,0,0-3.539Z" transform="translate(-3433.383 -19351.006)"/>
    </g>
  </g>
</svg>
