<svg xmlns="http://www.w3.org/2000/svg" width="70" height="70" viewBox="0 0 70 70">
  <defs>
    <style>
      .cls-1 {
        fill: #fff;
        opacity: 0;
      }

      .cls-2 {
        fill: #3874ff;
      }
    </style>
  </defs>
  <g id="building" transform="translate(3406 19062)">
    <rect id="Rectangle_1032" data-name="Rectangle 1032" class="cls-1" width="70" height="70" transform="translate(-3406 -19062)"/>
    <g id="building_1" data-name="building 1" transform="translate(-3401.444 -19064.623)">
      <g id="Group" transform="translate(18.244 14.067)">
        <g id="Group-2" data-name="Group">
          <path id="Vector" class="cls-2" d="M21.861,0H1.645A1.7,1.7,0,0,0,0,1.694V47.486H23.54V1.694A1.735,1.735,0,0,0,21.861,0ZM6.359,38.547a1.082,1.082,0,0,1-2.165,0V34.341a1.082,1.082,0,0,1,2.165,0Zm0-13.142a1.082,1.082,0,0,1-2.165,0V21.2a1.082,1.082,0,0,1,2.165,0Zm0-13.142a1.082,1.082,0,0,1-2.165,0V8.056a1.082,1.082,0,0,1,2.165,0Zm6.629,26.285a1.082,1.082,0,1,1-2.165,0V34.341a1.082,1.082,0,1,1,2.165,0Zm0-13.142a1.082,1.082,0,0,1-2.165,0V21.2a1.082,1.082,0,1,1,2.165,0Zm0-13.142a1.082,1.082,0,0,1-2.165,0V8.056a1.082,1.082,0,1,1,2.165,0Zm6.494,26.285a1.082,1.082,0,1,1-2.165,0V34.341a1.082,1.082,0,1,1,2.165,0Zm0-13.142a1.082,1.082,0,1,1-2.165,0V21.2a1.082,1.082,0,1,1,2.165,0Zm0-13.142a1.082,1.082,0,0,1-2.165,0V8.056a1.082,1.082,0,1,1,2.165,0Z"/>
        </g>
      </g>
      <g id="Group-3" data-name="Group" transform="translate(4.444 36.119)">
        <g id="Group-4" data-name="Group">
          <path id="Vector-2" data-name="Vector" class="cls-2" d="M1.645,0A1.615,1.615,0,0,0,0,1.585s0,0,0,0V25.435H11.635V0ZM7.81,19.482H4.13a1.082,1.082,0,0,1,0-2.165H7.81a1.082,1.082,0,1,1,0,2.165Zm0-6.629H4.13a1.082,1.082,0,0,1,0-2.165H7.81a1.082,1.082,0,0,1,0,2.165Zm0-6.494H4.13a1.082,1.082,0,0,1,0-2.165H7.81a1.082,1.082,0,0,1,0,2.165Z"/>
        </g>
      </g>
      <g id="Group-5" data-name="Group" transform="translate(43.949 25.296)">
        <g id="Group-6" data-name="Group" transform="translate(0 0)">
          <path id="Vector-3" data-name="Vector" class="cls-2" d="M11.072,7.17H6.484A1.016,1.016,0,0,1,5.412,6.158V1.636A1.644,1.644,0,0,0,3.778,0H0V14.611H6.956a1.082,1.082,0,1,1,0,2.165H0v4.329H6.956a1.082,1.082,0,0,1,0,2.165H0v4.465H6.956a1.082,1.082,0,0,1,0,2.165H0v6.359H12.717V8.864A1.705,1.705,0,0,0,11.072,7.17Z"/>
        </g>
      </g>
    </g>
  </g>
</svg>
