<svg xmlns="http://www.w3.org/2000/svg" width="70" height="70" viewBox="0 0 70 70">
  <defs>
    <style>
      .cls-1 {
        fill: #fff;
        opacity: 0;
      }

      .cls-2 {
        fill: #3874ff;
      }
    </style>
  </defs>
  <g id="car" transform="translate(3812 19062)">
    <rect id="Rectangle_1035" data-name="Rectangle 1035" class="cls-1" width="70" height="70" transform="translate(-3812 -19062)"/>
    <g id="Group_3683" data-name="Group 3683" transform="translate(249 341)">
      <path id="Path" class="cls-2" d="M0,7.471A1.017,1.017,0,0,0,1.037,8.525H2.692a7.281,7.281,0,0,1,13.17,0H37.377V0H0Z" transform="translate(-4054 -19362.395)"/>
      <path id="Path-2" data-name="Path" class="cls-2" d="M5.246,0a5.246,5.246,0,1,0,5.246,5.246A5.246,5.246,0,0,0,5.246,0Z" transform="translate(-4050.066 -19356.492)"/>
      <path id="Path-3" data-name="Path" class="cls-2" d="M19.674,2.042,14.9,0H0V14.426H2.892a7.473,7.473,0,0,1,13.54,0h2.83a1.048,1.048,0,0,0,1.066-1.088V3.091A1.118,1.118,0,0,0,19.674,2.042Z" transform="translate(-4014.656 -19368.295)"/>
      <path id="Path-4" data-name="Path" class="cls-2" d="M9.926,1.8A3.394,3.394,0,0,0,6.868,0H0V7.869H13.115Z" transform="translate(-4014.656 -19378.131)"/>
      <path id="Path-5" data-name="Path" class="cls-2" d="M34.063,0H3.3A3.308,3.308,0,0,0,0,3.347V20.984H37.377V3.347c0-.005,0-.01,0-.015A3.322,3.322,0,0,0,34.063,0Z" transform="translate(-4054 -19386)"/>
      <path id="Path-6" data-name="Path" class="cls-2" d="M5.246,0a5.246,5.246,0,1,0,5.246,5.246h0A5.246,5.246,0,0,0,5.246,0Z" transform="translate(-4010.721 -19356.492)"/>
    </g>
  </g>
</svg>
