<svg xmlns="http://www.w3.org/2000/svg" width="70" height="70" viewBox="0 0 70 70">
  <defs>
    <style>
      .cls-1 {
        fill: #fff;
        opacity: 0;
      }

      .cls-2 {
        fill: #3680f6;
      }
    </style>
  </defs>
  <g id="cash" transform="translate(3693 18924)">
    <rect id="Rectangle_1036" data-name="Rectangle 1036" class="cls-1" width="70" height="70" transform="translate(-3693 -18924)"/>
    <g id="pay-per-click_1" data-name="pay-per-click 1" transform="translate(-3682 -18912)">
      <path id="Vector" class="cls-2" d="M17.378,0A17.269,17.269,0,0,0,0,17.117a17.016,17.016,0,0,0,.225,2.76l6.542-.951a4.279,4.279,0,0,1,.612-.044,4.2,4.2,0,0,1,2.963,1.208,4.1,4.1,0,0,1,1.182,3.519L10.162,32.69a17.6,17.6,0,0,0,7.216,1.544A17.268,17.268,0,0,0,34.757,17.117,17.269,17.269,0,0,0,17.378,0Zm1.428,25.114v1.375a1.428,1.428,0,0,1-2.857,0V25.119H13.857a1.406,1.406,0,1,1,0-2.812h4.725a1.892,1.892,0,1,0,0-3.783H16.174a4.7,4.7,0,0,1-.224-9.4V7.746a1.428,1.428,0,0,1,2.857,0V9.115h1.442a1.406,1.406,0,1,1,0,2.813H16.174a1.892,1.892,0,1,0,0,3.783h2.408a4.7,4.7,0,0,1,.224,9.4Z" transform="translate(13.989 1.969)"/>
      <path id="Vector-2" data-name="Vector" class="cls-2" d="M21.16.015,6.78,2.107a1.423,1.423,0,0,0-1.147.95,1.391,1.391,0,0,0,.346,1.436L8.586,7.061l-7.13,7.023a4.858,4.858,0,0,0,0,6.936,5.034,5.034,0,0,0,7.043,0L15.628,14l2.606,2.568a1.444,1.444,0,0,0,1.459.341,1.412,1.412,0,0,0,.964-1.13L22.781,1.612a1.391,1.391,0,0,0-.4-1.2A1.441,1.441,0,0,0,21.16.015Z" transform="translate(0 23.569)"/>
    </g>
  </g>
</svg>
