<svg xmlns="http://www.w3.org/2000/svg" width="70" height="70" viewBox="0 0 70 70">
  <defs>
    <style>
      .cls-1 {
        fill: #fff;
        opacity: 0;
      }

      .cls-2 {
        fill: #3680f6;
      }
    </style>
  </defs>
  <g id="chain" transform="translate(3812 18924)">
    <rect id="Rectangle_1035" data-name="Rectangle 1035" class="cls-1" width="70" height="70" transform="translate(-3812 -18924)"/>
    <g id="Group" transform="translate(-4210 -19386)">
      <g id="Group-2" data-name="Group">
        <path id="Vector" class="cls-2" d="M43.208,0a4.731,4.731,0,0,0-4.8,4.651A4.569,4.569,0,0,0,39.758,7.9L30.99,24.962a4.047,4.047,0,0,0-.581-.055,4.906,4.906,0,0,0-1.81.347L21.792,17.8a4.592,4.592,0,0,0,.619-2.244,4.8,4.8,0,0,0-9.6,0,4.561,4.561,0,0,0,1.181,3.028L5.654,32.769a4.507,4.507,0,0,0-.853-.082,4.671,4.671,0,1,0,0,9.339,4.734,4.734,0,0,0,4.8-4.669A4.561,4.561,0,0,0,8.42,34.328l8.327-14.182a4.632,4.632,0,0,0,2.654-.264l6.808,7.451a4.609,4.609,0,0,0-.609,2.244,4.8,4.8,0,0,0,9.6.036,4.626,4.626,0,0,0-1.35-3.265L42.618,9.284a4.047,4.047,0,0,0,.581.055A4.734,4.734,0,0,0,48,4.67,4.726,4.726,0,0,0,43.208,0Z" transform="translate(409 476)"/>
      </g>
    </g>
  </g>
</svg>
