<svg xmlns="http://www.w3.org/2000/svg" width="70" height="70" viewBox="0 0 70 70">
  <defs>
    <style>
      .cls-1 {
        fill: #fff;
        opacity: 0;
      }

      .cls-2 {
        fill: #3680f6;
      }
    </style>
  </defs>
  <g id="cup" transform="translate(3573 18924)">
    <rect id="Rectangle_1037" data-name="Rectangle 1037" class="cls-1" width="70" height="70" transform="translate(-3573 -18924)"/>
    <g id="champions-cup_1" data-name="champions-cup 1" transform="translate(-3562.42 -18913)">
      <path id="Vector" class="cls-2" d="M38.373.852A1.19,1.19,0,0,0,37,.022L31.471,1.109H7.688L2.157.022A1.192,1.192,0,0,0,.786.852c-.114.382-2.716,9.408,2.22,14.827,3.572,3.922,10.138,4.735,13.546,4.883a4.6,4.6,0,0,1,.5,2.088v5.209a3.949,3.949,0,0,1-2.683,3.719,6.041,6.041,0,0,0-3.823,2.94H7.62a1.19,1.19,0,0,0-1.19,1.19v11.1A1.19,1.19,0,0,0,7.62,48H31.54a1.19,1.19,0,0,0,1.19-1.19v-11.1a1.19,1.19,0,0,0-1.19-1.19H28.61a6.041,6.041,0,0,0-3.822-2.94A3.949,3.949,0,0,1,22.1,27.859V22.65a4.6,4.6,0,0,1,.5-2.088c3.409-.148,9.974-.962,13.546-4.883C41.089,10.26,38.486,1.233,38.373.852ZM4.766,14.076C1.609,10.61,2.344,4.915,2.821,2.579l3.391.666A13.61,13.61,0,0,0,13.023,17.8C10.125,17.322,6.78,16.287,4.766,14.076ZM25.859,44.563H13.3a1.19,1.19,0,1,1,0-2.38H25.859a1.19,1.19,0,1,1,0,2.38Zm3.218-6.319a1.19,1.19,0,1,1,0,2.38h-19a1.19,1.19,0,1,1,0-2.38Zm5.316-24.168c-2.014,2.211-5.36,3.246-8.258,3.726A13.61,13.61,0,0,0,32.948,3.245l3.393-.667C36.821,4.912,37.562,10.6,34.393,14.076Z" transform="translate(4.42 0)"/>
    </g>
  </g>
</svg>
