<svg xmlns="http://www.w3.org/2000/svg" width="70" height="70" viewBox="0 0 70 70">
  <defs>
    <style>
      .cls-1 {
        fill: #fff;
        opacity: 0;
      }

      .cls-2 {
        fill: #3680f6;
      }
    </style>
  </defs>
  <g id="shield" transform="translate(3358 18924)">
    <rect id="Rectangle_1039" data-name="Rectangle 1039" class="cls-1" width="70" height="70" transform="translate(-3358 -18924)"/>
    <g id="trusted_1" data-name="trusted 1" transform="translate(-3350.633 -18912)">
      <path id="Vector" class="cls-2" d="M11.184,0H0A56.185,56.185,0,0,0,5.286,9.954a51.386,51.386,0,0,0,9.363,9.854,37.872,37.872,0,0,0,4.393,3.126,13.633,13.633,0,0,0,2.008,1.008V8.492C15.959,7.856,11.922,4.382,11.184,0Z" transform="translate(5.221 24.057)"/>
      <path id="Vector-2" data-name="Vector" class="cls-2" d="M0,8.492V23.911a13.965,13.965,0,0,0,1.927-.976A37.908,37.908,0,0,0,6.32,19.808a51.382,51.382,0,0,0,9.363-9.854A56.127,56.127,0,0,0,20.968,0H9.867C9.129,4.382,5.091,7.856,0,8.492Z" transform="translate(29.636 24.057)"/>
      <path id="Vector-3" data-name="Vector" class="cls-2" d="M24.6,12.675V0h-9.97a1.641,1.641,0,0,0-1.648,1.158c-.014.06-1.556,6.1-12.161,11.569a1.371,1.371,0,0,0-.766,1.6c.071.241.923,3.107,2.363,6.837H14.77C15.507,16.792,19.525,13.323,24.6,12.675Z" transform="translate(1.634 0)"/>
      <path id="Vector-4" data-name="Vector" class="cls-2" d="M9.907,21.162H22.181c1.44-3.73,2.292-6.6,2.363-6.837a1.37,1.37,0,0,0-.765-1.6A29.616,29.616,0,0,1,13.705,4.871a11.778,11.778,0,0,1-2.09-3.719A1.618,1.618,0,0,0,9.969,0H0V12.665C5.11,13.288,9.166,16.768,9.907,21.162Z" transform="translate(29.596 0)"/>
      <path id="Vector-5" data-name="Vector" class="cls-2" d="M8.306,0C3.726,0,0,3.207,0,7.149S3.726,14.3,8.306,14.3s8.306-3.207,8.306-7.149S12.886,0,8.306,0Zm4.6,6.531-5.02,4.32a1.829,1.829,0,0,1-1.189.424l-.082,0A1.79,1.79,0,0,1,5.4,10.747L3.25,8.5a1.314,1.314,0,0,1,.23-2.038,1.874,1.874,0,0,1,2.368.2l.969,1.014,3.709-3.192a1.88,1.88,0,0,1,2.379,0,1.309,1.309,0,0,1,0,2.047Z" transform="translate(19.647 15.461)"/>
    </g>
  </g>
</svg>
