<svg xmlns="http://www.w3.org/2000/svg" width="57.111" height="51.933" viewBox="0 0 57.111 51.933">
  <g id="building_1" data-name="building 1" transform="translate(-4.444 -14.067)">
    <g id="Group">
      <g id="Group-2" data-name="Group">
        <path id="Vector" d="M23.908,0H1.8A1.865,1.865,0,0,0,0,1.853v50.08H25.744V1.853A1.9,1.9,0,0,0,23.908,0ZM6.954,42.156a1.184,1.184,0,1,1-2.367,0v-4.6a1.184,1.184,0,1,1,2.367,0Zm0-14.373a1.184,1.184,0,1,1-2.367,0v-4.6a1.184,1.184,0,1,1,2.367,0Zm0-14.373a1.184,1.184,0,0,1-2.367,0v-4.6a1.184,1.184,0,0,1,2.367,0ZM14.2,42.156a1.184,1.184,0,0,1-2.367,0v-4.6a1.184,1.184,0,0,1,2.367,0Zm0-14.373a1.184,1.184,0,1,1-2.367,0v-4.6a1.184,1.184,0,0,1,2.367,0Zm0-14.373a1.184,1.184,0,0,1-2.367,0v-4.6a1.184,1.184,0,0,1,2.367,0Zm7.1,28.746a1.184,1.184,0,1,1-2.367,0v-4.6a1.184,1.184,0,1,1,2.367,0Zm0-14.373a1.184,1.184,0,1,1-2.367,0v-4.6a1.184,1.184,0,1,1,2.367,0Zm0-14.373a1.184,1.184,0,1,1-2.367,0v-4.6a1.184,1.184,0,1,1,2.367,0Z" transform="translate(19.536 14.067)" fill="#3874ff"/>
      </g>
    </g>
    <g id="Group-3" data-name="Group">
      <g id="Group-4" data-name="Group">
        <path id="Vector-2" data-name="Vector" d="M1.8,0A1.766,1.766,0,0,0,0,1.734s0,0,0,.005V27.816H12.724V0ZM8.541,21.306H4.517a1.184,1.184,0,0,1,0-2.367H8.541a1.184,1.184,0,1,1,0,2.367Zm0-7.25H4.517a1.184,1.184,0,0,1,0-2.367H8.541a1.184,1.184,0,0,1,0,2.367Zm0-7.1H4.517a1.184,1.184,0,0,1,0-2.367H8.541a1.184,1.184,0,0,1,0,2.367Z" transform="translate(4.444 38.184)" fill="#3874ff"/>
      </g>
    </g>
    <g id="Group-5" data-name="Group">
      <g id="Group-6" data-name="Group">
        <path id="Vector-3" data-name="Vector" d="M12.109,7.842H7.091A1.111,1.111,0,0,1,5.918,6.735V1.789A1.8,1.8,0,0,0,4.132,0H0V15.979H7.607a1.184,1.184,0,0,1,0,2.367H0v4.735H7.607a1.184,1.184,0,0,1,0,2.367H0v4.883H7.607a1.184,1.184,0,0,1,0,2.367H0v6.954H13.908V9.694A1.865,1.865,0,0,0,12.109,7.842Z" transform="translate(47.648 26.348)" fill="#3874ff"/>
      </g>
    </g>
  </g>
</svg>
