<svg xmlns="http://www.w3.org/2000/svg" width="48" height="48" viewBox="0 0 48 48">
  <g id="Group" transform="translate(-409 -473)">
    <g id="Group-2" data-name="Group">
      <path id="Vector" d="M43.208,0a5.078,5.078,0,0,0-4.8,5.312,5.615,5.615,0,0,0,1.35,3.708L30.99,28.51a3.559,3.559,0,0,0-.581-.062,4.376,4.376,0,0,0-1.81.4l-6.808-8.51a5.822,5.822,0,0,0,.619-2.562,5.085,5.085,0,0,0-4.8-5.333,5.085,5.085,0,0,0-4.8,5.333,5.642,5.642,0,0,0,1.181,3.458l-8.336,16.2a3.965,3.965,0,0,0-.853-.094A5.085,5.085,0,0,0,0,42.667,5.085,5.085,0,0,0,4.8,48a5.085,5.085,0,0,0,4.8-5.333A5.642,5.642,0,0,0,8.42,39.208l8.327-16.2a4.1,4.1,0,0,0,2.654-.3l6.808,8.51a5.849,5.849,0,0,0-.609,2.562,5.1,5.1,0,0,0,4.782,5.354,5.087,5.087,0,0,0,4.82-5.312,5.69,5.69,0,0,0-1.35-3.729L42.618,10.6a3.559,3.559,0,0,0,.581.063A5.085,5.085,0,0,0,48,5.333,5.078,5.078,0,0,0,43.208,0Z" transform="translate(409 473)" fill="#3680f6"/>
    </g>
  </g>
</svg>
