<svg xmlns="http://www.w3.org/2000/svg" width="234" height="106" viewBox="0 0 234 106">
  <g id="Group_2702" data-name="Group 2702" transform="translate(-129.135 -31.458)">
    <g id="Group_2693" data-name="Group 2693" transform="translate(209.462 36.458)">
      <text id="IDN" transform="translate(-0.326 81)" fill="#232d53" font-size="80" font-family="SegoeUIBlack, Segoe UI"><tspan x="0" y="0">IDN</tspan></text>
    </g>
    <g id="Group_2703" data-name="Group 2703" transform="translate(215.731 125.326)">
      <path id="Path_3523" data-name="Path 3523" d="M.41-13.7v.7H2.877v7.064h.744V-13H6.1v-.7Zm9.307,2.366a1.978,1.978,0,0,0-1.825,1.082V-14.06H7.17v8.124h.721V-8.854a1.669,1.669,0,0,1,1.758-1.769,1.506,1.506,0,0,1,1.487,1.656v3.031h.721V-9A2.1,2.1,0,0,0,9.716-11.333ZM18.5-8.584a2.555,2.555,0,0,0-2.6-2.749,2.613,2.613,0,0,0-2.67,2.749A2.642,2.642,0,0,0,15.9-5.8a2.643,2.643,0,0,0,2.355-1.341l-.62-.27a1.977,1.977,0,0,1-1.713.924,1.882,1.882,0,0,1-1.972-1.78h4.529A2.969,2.969,0,0,0,18.5-8.584Zm-4.541-.3A1.86,1.86,0,0,1,15.9-10.646a1.814,1.814,0,0,1,1.882,1.758Zm9.893,2.952V-13.7h-.744v7.763Zm4.552-5.4a1.978,1.978,0,0,0-1.825,1.082V-11.2h-.721v5.262h.721V-8.854a1.669,1.669,0,0,1,1.758-1.769,1.506,1.506,0,0,1,1.487,1.656v3.031h.721V-9A2.1,2.1,0,0,0,28.408-11.333Zm6.569-2.039v-.687h-.5c-1.375,0-1.893.958-1.893,2.276v.586H31.552v.62h1.037v4.642h.721v-4.642H34.65v-.62H33.309v-.665c0-.845.282-1.51,1.273-1.51Zm3.144,2.039a1.7,1.7,0,0,0-1.645,1.42V-11.2h-.732v5.262h.732V-7.919c0-1.3.383-2.715,1.634-2.715a1.853,1.853,0,0,1,.71.146l.135-.687A2.076,2.076,0,0,0,38.121-11.333Zm5.96,1.161a2.364,2.364,0,0,0-2.107-1.161,2.687,2.687,0,0,0-2.659,2.76A2.7,2.7,0,0,0,41.951-5.8a2.4,2.4,0,0,0,2.129-1.228v1.093H44.8V-11.2h-.721ZM42.041-6.488a2.059,2.059,0,0,1-2.017-2.084,2.054,2.054,0,0,1,2.006-2.073,2.075,2.075,0,0,1,2.051,2.1A2.044,2.044,0,0,1,42.041-6.488ZM49.8-13.7v7.763h2.941c2.2,0,3.47-1.668,3.47-3.865s-1.273-3.9-3.47-3.9Zm.744,7.064V-13h2.2c1.769,0,2.727,1.4,2.727,3.2s-.958,3.166-2.727,3.166ZM62.66-8.584a2.555,2.555,0,0,0-2.6-2.749,2.613,2.613,0,0,0-2.67,2.749A2.642,2.642,0,0,0,60.058-5.8a2.643,2.643,0,0,0,2.355-1.341l-.62-.27a1.977,1.977,0,0,1-1.713.924,1.882,1.882,0,0,1-1.972-1.78h4.529A2.97,2.97,0,0,0,62.66-8.584Zm-4.541-.3a1.86,1.86,0,0,1,1.938-1.758,1.814,1.814,0,0,1,1.882,1.758Zm10.354-1.284a2.364,2.364,0,0,0-2.107-1.161,2.687,2.687,0,0,0-2.659,2.76A2.7,2.7,0,0,0,66.345-5.8a2.4,2.4,0,0,0,2.129-1.228v1.093H69.2V-11.2h-.721ZM66.435-6.488a2.059,2.059,0,0,1-2.017-2.084,2.054,2.054,0,0,1,2.006-2.073,2.075,2.075,0,0,1,2.051,2.1A2.044,2.044,0,0,1,66.435-6.488Zm5.284.552V-14.06H71v8.124Zm3.29.135c1.093,0,1.938-.62,1.938-1.555,0-.608-.315-1.228-1.341-1.476l-.777-.192c-.383-.09-.811-.3-.811-.8a.921.921,0,0,1,1.025-.868.944.944,0,0,1,1.014.789h.7a1.557,1.557,0,0,0-1.724-1.431,1.585,1.585,0,0,0-1.735,1.5c0,.879.6,1.262,1.341,1.442l.755.18c.541.135.834.417.834.845,0,.53-.462.924-1.217.924a1.163,1.163,0,0,1-1.251-.89h-.665A1.79,1.79,0,0,0,75.009-5.8ZM86.3-7.243,82.333-13.7h-.777v7.763H82.3V-12.4l3.977,6.467h.766V-13.7H86.3Zm7.594-1.341a2.555,2.555,0,0,0-2.6-2.749,2.613,2.613,0,0,0-2.67,2.749A2.642,2.642,0,0,0,91.29-5.8a2.643,2.643,0,0,0,2.355-1.341l-.62-.27a1.977,1.977,0,0,1-1.713.924,1.882,1.882,0,0,1-1.972-1.78H93.87A2.969,2.969,0,0,0,93.893-8.584Zm-4.541-.3a1.86,1.86,0,0,1,1.938-1.758,1.814,1.814,0,0,1,1.882,1.758Zm6.941-2.31v-1.972h-.71V-11.2h-.958v.62h.958v4.642h.71v-4.642H97.5v-.62Zm7.774,4.169L102.523-11.2h-.744l-1.532,4.18L98.7-11.2h-.777l2.017,5.262h.631l1.566-4.3,1.634,4.3h.631l1.96-5.262H105.6ZM109.791-5.8a2.7,2.7,0,0,0,2.76-2.772,2.688,2.688,0,0,0-2.76-2.76,2.679,2.679,0,0,0-2.749,2.76A2.688,2.688,0,0,0,109.791-5.8Zm0-.687a2.006,2.006,0,0,1-2.028-2.084,2,2,0,0,1,2.028-2.073,2.012,2.012,0,0,1,2.039,2.073A2.021,2.021,0,0,1,109.791-6.488Zm6.569-4.845a1.7,1.7,0,0,0-1.645,1.42V-11.2h-.732v5.262h.732V-7.919c0-1.3.383-2.715,1.634-2.715a1.853,1.853,0,0,1,.71.146l.135-.687A2.076,2.076,0,0,0,116.359-11.333Zm3.279,2.422,2.253-2.287h-1l-1.972,2.017V-14.06H118.2v8.124h.721v-2.7l2.659,2.7h.98Z" transform="translate(-0.41 14.06)" fill="#232d53"/>
    </g>
    <g id="Group_2700" data-name="Group 2700" transform="translate(130.135 62.634)">
      <g id="Rectangle_808" data-name="Rectangle 808" transform="translate(15 -2.177)" fill="none" stroke="#3680f6" stroke-width="1.5">
        <rect width="57" height="57" stroke="none"/>
        <rect x="0.75" y="0.75" width="55.5" height="55.5" fill="none"/>
      </g>
      <g id="Rectangle_809" data-name="Rectangle 809" transform="translate(7 6.823)" fill="none" stroke="#3680f6" stroke-width="1.5">
        <rect width="57" height="57" stroke="none"/>
        <rect x="0.75" y="0.75" width="55.5" height="55.5" fill="none"/>
      </g>
      <g id="Rectangle_810" data-name="Rectangle 810" transform="translate(-1 15.823)" fill="none" stroke="#3680f6" stroke-width="1.5">
        <rect width="57" height="57" stroke="none"/>
        <rect x="0.75" y="0.75" width="55.5" height="55.5" fill="none"/>
      </g>
    </g>
  </g>
</svg>
