<svg xmlns="http://www.w3.org/2000/svg" width="48" height="47.456" viewBox="0 0 48 47.456">
  <g id="Group_52" data-name="Group 52" transform="translate(-1117.906 -473.281)">
    <g id="support_1" data-name="support 1" transform="translate(1118 473)">
      <g id="surface1">
        <path id="Vector" d="M.872,5.085,3.25,7.463l2.58,2.581a2.958,2.958,0,0,0,2.1.872h0a2.978,2.978,0,0,0,2.105-5.083L5.082.872a2.978,2.978,0,0,0-4.222,4.2Z" transform="translate(15.406 0.281)" fill="#3680f6"/>
        <path id="Vector-2" data-name="Vector" d="M.872,5.085,2.423,6.636l3.407,3.407,0,0,1.219,1.219.017.016a2.977,2.977,0,1,0,4.211-4.211L10.054,5.844l-.013-.013L7.2,2.989,5.084.875l0,0h0a2.978,2.978,0,0,0-4.217,4.2Z" transform="translate(9.206 6.481)" fill="#3680f6"/>
        <path id="Vector-3" data-name="Vector" d="M.882,5.093l4.935,4.935.015.015a2.977,2.977,0,0,0,4.214-4.208L6.913,2.7,5.083.872A2.978,2.978,0,1,0,.872,5.083Z" transform="translate(3.005 12.681)" fill="#3680f6"/>
        <path id="Vector-4" data-name="Vector" d="M4.6,8.813a2.955,2.955,0,0,0,1.62.824l.037.006a3,3,0,0,0,.439.032A2.977,2.977,0,0,0,8.8,4.592L5.082.872A2.978,2.978,0,1,0,.871,5.083L.886,5.1l3.7,3.7Z" transform="translate(-0.094 21.981)" fill="#3680f6"/>
        <path id="Vector-5" data-name="Vector" d="M43.573,22.57a2.975,2.975,0,0,0-3.627-.454,1.406,1.406,0,0,1-1.828-.342l-.083-.107a1.406,1.406,0,0,1,.114-1.86l2.324-2.324.023-.022a2.978,2.978,0,0,0-4.233-4.189,1.406,1.406,0,1,1-1.989-1.989A2.978,2.978,0,1,0,30.062,7.07a1.406,1.406,0,1,1-1.989-1.989A2.978,2.978,0,0,0,23.862.871L22.433,2.3l1.541,1.542a5.791,5.791,0,0,1-3.51,9.855,5.813,5.813,0,0,1,.246,1.679,5.8,5.8,0,0,1-7.472,5.543,5.781,5.781,0,0,1-4.807,5.128,5.788,5.788,0,0,1-5.291,8.138h0c-.063,0-.126,0-.189,0l-2.3,2.3A2.322,2.322,0,0,0,0,38.276a3.148,3.148,0,0,0,.943,2.057L7.211,46.6a2.936,2.936,0,0,0,4.147,0l3.551-3.551,1.357-.364A16.193,16.193,0,0,0,31.85,38.505l7.986-7.986.019-.019,3.719-3.719A2.981,2.981,0,0,0,43.573,22.57Z" transform="translate(3.462 0.283)" fill="#3680f6"/>
        <path id="Vector-6" data-name="Vector" d="M11.462,0,6.256,5.206A18.968,18.968,0,0,1,0,9.36l1.948,1.948a2.936,2.936,0,0,0,4.147,0l6.264-6.264c1.124-1.124,1.393-2.754.588-3.559Z" transform="translate(31.044 35.571)" fill="#3680f6"/>
      </g>
    </g>
  </g>
</svg>
