<svg xmlns="http://www.w3.org/2000/svg" width="210.001" height="180" viewBox="0 0 210.001 180">
  <g id="Ornament_Dotted_white" data-name="Ornament/Dotted/white" transform="translate(-708 -557)">
    <path id="Combined_Shape" data-name="Combined Shape" d="M204.167,177.5a2.951,2.951,0,1,1,2.916,2.5A2.733,2.733,0,0,1,204.167,177.5ZM175,177.5a2.951,2.951,0,1,1,2.917,2.5A2.733,2.733,0,0,1,175,177.5Zm-29.166,0a2.952,2.952,0,1,1,2.917,2.5A2.733,2.733,0,0,1,145.834,177.5Zm-29.168,0a2.952,2.952,0,1,1,2.917,2.5A2.733,2.733,0,0,1,116.666,177.5Zm-29.165,0a2.951,2.951,0,1,1,2.916,2.5A2.733,2.733,0,0,1,87.5,177.5Zm-29.166,0a2.951,2.951,0,1,1,2.917,2.5A2.733,2.733,0,0,1,58.334,177.5Zm-29.168,0a2.733,2.733,0,0,1,2.917-2.5,2.53,2.53,0,1,1,0,5A2.732,2.732,0,0,1,29.166,177.5ZM0,177.5A2.733,2.733,0,0,1,2.917,175a2.53,2.53,0,1,1,0,5A2.732,2.732,0,0,1,0,177.5Zm204.167-25a2.951,2.951,0,1,1,2.916,2.5A2.733,2.733,0,0,1,204.167,152.5ZM175,152.5a2.951,2.951,0,1,1,2.917,2.5A2.733,2.733,0,0,1,175,152.5Zm-29.166,0a2.952,2.952,0,1,1,2.917,2.5A2.733,2.733,0,0,1,145.834,152.5Zm-29.168,0a2.952,2.952,0,1,1,2.917,2.5A2.733,2.733,0,0,1,116.666,152.5Zm-29.165,0a2.951,2.951,0,1,1,2.916,2.5A2.733,2.733,0,0,1,87.5,152.5Zm-29.166,0a2.951,2.951,0,1,1,2.917,2.5A2.733,2.733,0,0,1,58.334,152.5Zm-29.168,0a2.733,2.733,0,0,1,2.917-2.5,2.53,2.53,0,1,1,0,5A2.732,2.732,0,0,1,29.166,152.5ZM0,152.5A2.733,2.733,0,0,1,2.917,150a2.53,2.53,0,1,1,0,5A2.732,2.732,0,0,1,0,152.5Zm204.167-25a2.951,2.951,0,1,1,2.916,2.5A2.732,2.732,0,0,1,204.167,127.5ZM175,127.5a2.951,2.951,0,1,1,2.917,2.5A2.733,2.733,0,0,1,175,127.5Zm-29.166,0a2.952,2.952,0,1,1,2.917,2.5A2.733,2.733,0,0,1,145.834,127.5Zm-29.168,0a2.952,2.952,0,1,1,2.917,2.5A2.733,2.733,0,0,1,116.666,127.5Zm-29.165,0a2.951,2.951,0,1,1,2.916,2.5A2.732,2.732,0,0,1,87.5,127.5Zm-29.166,0a2.951,2.951,0,1,1,2.917,2.5A2.733,2.733,0,0,1,58.334,127.5Zm-29.168,0a2.733,2.733,0,0,1,2.917-2.5,2.53,2.53,0,1,1,0,5A2.733,2.733,0,0,1,29.166,127.5ZM0,127.5A2.733,2.733,0,0,1,2.917,125a2.53,2.53,0,1,1,0,5A2.733,2.733,0,0,1,0,127.5Zm204.167-25a2.951,2.951,0,1,1,2.916,2.5A2.732,2.732,0,0,1,204.167,102.5ZM175,102.5a2.951,2.951,0,1,1,2.917,2.5A2.733,2.733,0,0,1,175,102.5Zm-29.166,0a2.952,2.952,0,1,1,2.917,2.5A2.733,2.733,0,0,1,145.834,102.5Zm-29.168,0a2.952,2.952,0,1,1,2.917,2.5A2.733,2.733,0,0,1,116.666,102.5Zm-29.165,0a2.951,2.951,0,1,1,2.916,2.5A2.732,2.732,0,0,1,87.5,102.5Zm-29.166,0a2.951,2.951,0,1,1,2.917,2.5A2.733,2.733,0,0,1,58.334,102.5Zm-29.168,0a2.733,2.733,0,0,1,2.917-2.5,2.53,2.53,0,1,1,0,5A2.733,2.733,0,0,1,29.166,102.5ZM0,102.5A2.733,2.733,0,0,1,2.917,100a2.53,2.53,0,1,1,0,5A2.733,2.733,0,0,1,0,102.5Zm204.167-25a2.951,2.951,0,1,1,2.916,2.5A2.732,2.732,0,0,1,204.167,77.5ZM175,77.5a2.951,2.951,0,1,1,2.917,2.5A2.732,2.732,0,0,1,175,77.5Zm-29.166,0a2.952,2.952,0,1,1,2.917,2.5A2.732,2.732,0,0,1,145.834,77.5Zm-29.168,0a2.952,2.952,0,1,1,2.917,2.5A2.732,2.732,0,0,1,116.666,77.5ZM87.5,77.5A2.951,2.951,0,1,1,90.417,80,2.732,2.732,0,0,1,87.5,77.5Zm-29.166,0A2.951,2.951,0,1,1,61.251,80,2.732,2.732,0,0,1,58.334,77.5Zm-29.168,0A2.732,2.732,0,0,1,32.083,75a2.53,2.53,0,1,1,0,5A2.733,2.733,0,0,1,29.166,77.5ZM0,77.5A2.732,2.732,0,0,1,2.917,75a2.53,2.53,0,1,1,0,5A2.733,2.733,0,0,1,0,77.5Zm204.167-25a2.951,2.951,0,1,1,2.916,2.5A2.733,2.733,0,0,1,204.167,52.5ZM175,52.5a2.951,2.951,0,1,1,2.917,2.5A2.733,2.733,0,0,1,175,52.5Zm-29.166,0a2.952,2.952,0,1,1,2.917,2.5A2.733,2.733,0,0,1,145.834,52.5Zm-29.168,0a2.952,2.952,0,1,1,2.917,2.5A2.733,2.733,0,0,1,116.666,52.5ZM87.5,52.5A2.951,2.951,0,1,1,90.417,55,2.733,2.733,0,0,1,87.5,52.5Zm-29.166,0A2.951,2.951,0,1,1,61.251,55,2.733,2.733,0,0,1,58.334,52.5Zm-29.168,0A2.733,2.733,0,0,1,32.083,50a2.53,2.53,0,1,1,0,5A2.732,2.732,0,0,1,29.166,52.5ZM0,52.5A2.733,2.733,0,0,1,2.917,50a2.53,2.53,0,1,1,0,5A2.732,2.732,0,0,1,0,52.5Zm204.167-25a2.951,2.951,0,0,1,5.833,0,2.951,2.951,0,0,1-5.833,0ZM175,27.5a2.951,2.951,0,0,1,5.833,0,2.951,2.951,0,0,1-5.833,0Zm-29.166,0a2.952,2.952,0,0,1,5.834,0,2.952,2.952,0,0,1-5.834,0Zm-29.168,0a2.952,2.952,0,0,1,5.834,0,2.952,2.952,0,0,1-5.834,0ZM87.5,27.5a2.951,2.951,0,0,1,5.833,0,2.951,2.951,0,0,1-5.833,0Zm-29.166,0a2.951,2.951,0,0,1,5.833,0,2.951,2.951,0,0,1-5.833,0Zm-29.168,0A2.733,2.733,0,0,1,32.083,25,2.733,2.733,0,0,1,35,27.5,2.733,2.733,0,0,1,32.083,30,2.733,2.733,0,0,1,29.166,27.5ZM0,27.5A2.733,2.733,0,0,1,2.917,25a2.733,2.733,0,0,1,2.917,2.5A2.733,2.733,0,0,1,2.917,30,2.733,2.733,0,0,1,0,27.5Zm204.167-25A2.952,2.952,0,0,1,210,2.5a2.952,2.952,0,0,1-5.834,0ZM175,2.5a2.951,2.951,0,0,1,5.833,0A2.951,2.951,0,0,1,175,2.5Zm-29.167,0a2.952,2.952,0,0,1,5.834,0,2.952,2.952,0,0,1-5.834,0Zm-29.166,0a2.952,2.952,0,0,1,5.834,0,2.952,2.952,0,0,1-5.834,0ZM87.5,2.5a2.951,2.951,0,0,1,5.833,0,2.951,2.951,0,0,1-5.833,0Zm-29.167,0a2.952,2.952,0,0,1,5.834,0,2.952,2.952,0,0,1-5.834,0Zm-29.166,0A2.733,2.733,0,0,1,32.083,0,2.733,2.733,0,0,1,35,2.5,2.733,2.733,0,0,1,32.083,5,2.732,2.732,0,0,1,29.167,2.5ZM0,2.5A2.733,2.733,0,0,1,2.917,0,2.733,2.733,0,0,1,5.834,2.5,2.733,2.733,0,0,1,2.917,5,2.733,2.733,0,0,1,0,2.5Z" transform="translate(708 557)" fill="#3680f6"/>
  </g>
</svg>
