<svg xmlns="http://www.w3.org/2000/svg" width="210" height="180.734" viewBox="0 0 210 180.734">
  <g id="Ornament_Dotted_darkblue" data-name="Ornament/Dotted/darkblue" transform="translate(-6 -1038)">
    <g id="Ornament_Dotted_white" data-name="Ornament/Dotted/white">
      <path id="Combined_Shape" data-name="Combined Shape" d="M210.166,1216.223a2.949,2.949,0,1,1,2.917,2.51A2.737,2.737,0,0,1,210.166,1216.223Zm-29.166,0a2.95,2.95,0,1,1,2.917,2.51A2.737,2.737,0,0,1,181,1216.223Zm-29.166,0a2.95,2.95,0,1,1,2.917,2.51A2.737,2.737,0,0,1,151.834,1216.223Zm-29.167,0a2.949,2.949,0,1,1,2.916,2.51A2.736,2.736,0,0,1,122.666,1216.223Zm-29.166,0a2.949,2.949,0,1,1,2.917,2.51A2.737,2.737,0,0,1,93.5,1216.223Zm-29.166,0a2.95,2.95,0,1,1,2.917,2.51A2.737,2.737,0,0,1,64.334,1216.223Zm-29.168,0a2.95,2.95,0,1,1,2.917,2.51A2.737,2.737,0,0,1,35.166,1216.223Zm-29.165,0a2.736,2.736,0,0,1,2.916-2.51,2.538,2.538,0,1,1,0,5.02A2.736,2.736,0,0,1,6,1216.223Zm204.166-25.1a2.949,2.949,0,1,1,2.917,2.51A2.736,2.736,0,0,1,210.166,1191.121Zm-29.166,0a2.95,2.95,0,1,1,2.917,2.51A2.736,2.736,0,0,1,181,1191.121Zm-29.166,0a2.95,2.95,0,1,1,2.917,2.51A2.736,2.736,0,0,1,151.834,1191.121Zm-29.167,0a2.949,2.949,0,1,1,2.916,2.51A2.736,2.736,0,0,1,122.666,1191.121Zm-29.166,0a2.949,2.949,0,1,1,2.917,2.51A2.736,2.736,0,0,1,93.5,1191.121Zm-29.166,0a2.95,2.95,0,1,1,2.917,2.51A2.736,2.736,0,0,1,64.334,1191.121Zm-29.168,0a2.95,2.95,0,1,1,2.917,2.51A2.736,2.736,0,0,1,35.166,1191.121Zm-29.165,0a2.736,2.736,0,0,1,2.916-2.51,2.538,2.538,0,1,1,0,5.02A2.736,2.736,0,0,1,6,1191.121Zm204.166-25.1a2.949,2.949,0,1,1,2.917,2.511A2.737,2.737,0,0,1,210.166,1166.018Zm-29.166,0a2.95,2.95,0,1,1,2.917,2.511A2.737,2.737,0,0,1,181,1166.018Zm-29.166,0a2.95,2.95,0,1,1,2.917,2.511A2.737,2.737,0,0,1,151.834,1166.018Zm-29.167,0a2.949,2.949,0,1,1,2.916,2.511A2.736,2.736,0,0,1,122.666,1166.018Zm-29.166,0a2.949,2.949,0,1,1,2.917,2.511A2.737,2.737,0,0,1,93.5,1166.018Zm-29.166,0a2.95,2.95,0,1,1,2.917,2.511A2.737,2.737,0,0,1,64.334,1166.018Zm-29.168,0a2.95,2.95,0,1,1,2.917,2.511A2.737,2.737,0,0,1,35.166,1166.018Zm-29.165,0a2.736,2.736,0,0,1,2.916-2.51,2.539,2.539,0,1,1,0,5.021A2.737,2.737,0,0,1,6,1166.018Zm204.166-25.1a2.949,2.949,0,1,1,2.917,2.51A2.737,2.737,0,0,1,210.166,1140.917Zm-29.166,0a2.95,2.95,0,1,1,2.917,2.51A2.737,2.737,0,0,1,181,1140.917Zm-29.166,0a2.95,2.95,0,1,1,2.917,2.51A2.737,2.737,0,0,1,151.834,1140.917Zm-29.167,0a2.949,2.949,0,1,1,2.916,2.51A2.736,2.736,0,0,1,122.666,1140.917Zm-29.166,0a2.949,2.949,0,1,1,2.917,2.51A2.737,2.737,0,0,1,93.5,1140.917Zm-29.166,0a2.95,2.95,0,1,1,2.917,2.51A2.737,2.737,0,0,1,64.334,1140.917Zm-29.168,0a2.95,2.95,0,1,1,2.917,2.51A2.737,2.737,0,0,1,35.166,1140.917Zm-29.165,0a2.736,2.736,0,0,1,2.916-2.51,2.538,2.538,0,1,1,0,5.02A2.736,2.736,0,0,1,6,1140.917Zm204.166-25.1a2.949,2.949,0,1,1,2.917,2.51A2.737,2.737,0,0,1,210.166,1115.816Zm-29.166,0a2.95,2.95,0,1,1,2.917,2.51A2.737,2.737,0,0,1,181,1115.816Zm-29.166,0a2.95,2.95,0,1,1,2.917,2.51A2.737,2.737,0,0,1,151.834,1115.816Zm-29.167,0a2.949,2.949,0,1,1,2.916,2.51A2.736,2.736,0,0,1,122.666,1115.816Zm-29.166,0a2.949,2.949,0,1,1,2.917,2.51A2.737,2.737,0,0,1,93.5,1115.816Zm-29.166,0a2.95,2.95,0,1,1,2.917,2.51A2.737,2.737,0,0,1,64.334,1115.816Zm-29.168,0a2.95,2.95,0,1,1,2.917,2.51A2.737,2.737,0,0,1,35.166,1115.816Zm-29.165,0a2.736,2.736,0,0,1,2.916-2.51,2.538,2.538,0,1,1,0,5.02A2.736,2.736,0,0,1,6,1115.816Zm204.166-25.1a2.949,2.949,0,1,1,2.917,2.51A2.736,2.736,0,0,1,210.166,1090.714Zm-29.166,0a2.95,2.95,0,1,1,2.917,2.51A2.736,2.736,0,0,1,181,1090.714Zm-29.166,0a2.95,2.95,0,1,1,2.917,2.51A2.736,2.736,0,0,1,151.834,1090.714Zm-29.167,0a2.949,2.949,0,1,1,2.916,2.51A2.736,2.736,0,0,1,122.666,1090.714Zm-29.166,0a2.949,2.949,0,1,1,2.917,2.51A2.736,2.736,0,0,1,93.5,1090.714Zm-29.166,0a2.95,2.95,0,1,1,2.917,2.51A2.736,2.736,0,0,1,64.334,1090.714Zm-29.168,0a2.95,2.95,0,1,1,2.917,2.51A2.736,2.736,0,0,1,35.166,1090.714Zm-29.165,0a2.736,2.736,0,0,1,2.916-2.51,2.538,2.538,0,1,1,0,5.02A2.736,2.736,0,0,1,6,1090.714Zm204.166-25.1a2.949,2.949,0,1,1,2.917,2.51A2.737,2.737,0,0,1,210.166,1065.613Zm-29.166,0a2.95,2.95,0,1,1,2.917,2.51A2.737,2.737,0,0,1,181,1065.613Zm-29.166,0a2.95,2.95,0,1,1,2.917,2.51A2.737,2.737,0,0,1,151.834,1065.613Zm-29.167,0a2.949,2.949,0,1,1,2.916,2.51A2.736,2.736,0,0,1,122.666,1065.613Zm-29.166,0a2.949,2.949,0,1,1,2.917,2.51A2.737,2.737,0,0,1,93.5,1065.613Zm-29.166,0a2.95,2.95,0,1,1,2.917,2.51A2.737,2.737,0,0,1,64.334,1065.613Zm-29.168,0a2.95,2.95,0,1,1,2.917,2.51A2.737,2.737,0,0,1,35.166,1065.613Zm-29.165,0a2.736,2.736,0,0,1,2.916-2.511,2.539,2.539,0,1,1,0,5.021A2.736,2.736,0,0,1,6,1065.613Zm204.167-25.1a2.949,2.949,0,1,1,2.916,2.511A2.736,2.736,0,0,1,210.167,1040.51Zm-29.167,0a2.95,2.95,0,1,1,2.917,2.511A2.737,2.737,0,0,1,181,1040.51Zm-29.166,0a2.949,2.949,0,1,1,2.916,2.511A2.736,2.736,0,0,1,151.834,1040.51Zm-29.167,0a2.95,2.95,0,1,1,2.917,2.511A2.737,2.737,0,0,1,122.666,1040.51Zm-29.166,0a2.949,2.949,0,1,1,2.917,2.511A2.737,2.737,0,0,1,93.5,1040.51Zm-29.167,0a2.95,2.95,0,1,1,2.917,2.511A2.737,2.737,0,0,1,64.333,1040.51Zm-29.166,0a2.95,2.95,0,1,1,2.917,2.511A2.737,2.737,0,0,1,35.167,1040.51ZM6,1040.51A2.736,2.736,0,0,1,8.916,1038a2.539,2.539,0,1,1,0,5.021A2.737,2.737,0,0,1,6,1040.51Z" fill="#3680f6"/>
    </g>
  </g>
</svg>
