<svg id="Group" xmlns="http://www.w3.org/2000/svg" width="20" height="17.667" viewBox="0 0 20 17.667">
  <path id="Vector" d="M19.127.135c-.9-.486-1.909.451-2.5,1.007-1.354,1.319-2.5,2.846-3.784,4.235C11.421,6.9,10.1,8.431,8.644,9.924A12.523,12.523,0,0,0,6.353,12.7a45.563,45.563,0,0,0-3.714-3.61C1.632,8.327-.034,7.772,0,9.612c.069,2.4,2.187,4.964,3.749,6.6a3.965,3.965,0,0,0,2.534,1.458c1.215.069,2.465-1.388,3.193-2.187,1.284-1.388,2.326-2.951,3.506-4.374C14.51,9.23,16.072,7.39,17.565,5.481,18.5,4.3,21.452,1.385,19.127.135ZM1.528,9.473a.263.263,0,0,0-.139.035,1.689,1.689,0,0,1-.382-.139Q1.163,9.264,1.528,9.473Z" fill="#3680f6"/>
</svg>
