<?xml version="1.0" encoding="utf-8"?>
<!-- Generator: Adobe Illustrator 24.3.0, SVG Export Plug-In . SVG Version: 6.00 Build 0)  -->
<svg version="1.1" id="Шар_1" xmlns="http://www.w3.org/2000/svg" xmlns:xlink="http://www.w3.org/1999/xlink" x="0px" y="0px"
	 viewBox="0 0 34.2 24" style="enable-background:new 0 0 34.2 24;" xml:space="preserve">
<style type="text/css">
	.st0{clip-path:url(#SVGID_2_);}
	.st1{fill:#232D53;}
	.st2{fill:none;stroke:#3680F6;stroke-width:1.5;}
	.st3{fill-rule:evenodd;clip-rule:evenodd;fill:#232D53;}
</style>
<g>
	<defs>
		<rect id="SVGID_1_" x="-295.1" y="0" width="328" height="24"/>
	</defs>
	<clipPath id="SVGID_2_">
		<use xlink:href="#SVGID_1_"  style="overflow:visible;"/>
	</clipPath>
	<g class="st0">
		<path class="st1" d="M-270,17.7V1.3h5v16.5H-270z M-246.3,9.3c0,1.5-0.3,3.1-1.1,4.4c-0.7,1.3-1.7,2.3-3,3c-1.4,0.7-2.9,1.1-4.5,1
			h-7V1.3h6.8C-249.2,1.3-246.3,4-246.3,9.3z M-251.5,9.4c0-0.8-0.2-1.5-0.5-2.2c-0.3-0.6-0.8-1.1-1.4-1.5c-0.7-0.4-1.4-0.5-2.1-0.5
			h-1.3v8.7h1.4c0.5,0,1.1-0.1,1.6-0.3c0.5-0.2,0.9-0.5,1.3-0.9C-251.9,11.7-251.5,10.5-251.5,9.4L-251.5,9.4z M-232.5,17.7
			l-5.8-7.9c-0.4-0.5-0.8-1.1-1.1-1.7h0c0,0.8,0.1,1.7,0.1,2.7v6.9h-4.6V1.3h4.7l5.6,7.6c0.1,0.1,0.2,0.2,0.3,0.4
			c0.1,0.1,0.2,0.3,0.3,0.4c0.1,0.1,0.2,0.3,0.3,0.4c0.1,0.1,0.1,0.2,0.2,0.4h0c-0.1-0.6-0.1-1.2-0.1-1.7V1.3h4.6v16.5L-232.5,17.7z
			"/>
		<path class="st1" d="M-269.7,20.2v0.2h0.7v2.1h0.2v-2.1h0.7v-0.2H-269.7z M-266.9,20.9c-0.1,0-0.2,0-0.3,0.1
			c-0.1,0.1-0.2,0.1-0.2,0.2v-1.1h-0.2v2.4h0.2v-0.9c0-0.1,0-0.1,0-0.2c0-0.1,0.1-0.1,0.1-0.2c0,0,0.1-0.1,0.2-0.1
			c0.1,0,0.1,0,0.2,0c0.1,0,0.1,0,0.2,0c0.1,0,0.1,0.1,0.1,0.1c0,0,0.1,0.1,0.1,0.2c0,0.1,0,0.1,0,0.2v0.9h0.2v-0.9
			c0-0.1,0-0.2,0-0.3c0-0.1-0.1-0.2-0.1-0.2c-0.1-0.1-0.1-0.1-0.2-0.2C-266.8,20.9-266.8,20.9-266.9,20.9z M-264.3,21.7
			c0-0.1,0-0.2,0-0.3c0-0.1-0.1-0.2-0.2-0.3c-0.1-0.1-0.2-0.1-0.3-0.2c-0.1,0-0.2-0.1-0.3-0.1c-0.1,0-0.2,0-0.3,0.1
			c-0.1,0-0.2,0.1-0.3,0.2c-0.1,0.1-0.1,0.2-0.2,0.3c0,0.1-0.1,0.2,0,0.3c0,0.1,0,0.2,0,0.3s0.1,0.2,0.2,0.3
			c0.1,0.1,0.2,0.1,0.3,0.2c0.1,0,0.2,0.1,0.3,0.1c0.1,0,0.3,0,0.4-0.1c0.1-0.1,0.2-0.2,0.3-0.3l-0.2-0.1c-0.1,0.1-0.1,0.2-0.2,0.2
			c-0.1,0-0.2,0.1-0.3,0.1c-0.1,0-0.3,0-0.4-0.1c-0.1-0.1-0.2-0.2-0.2-0.4L-264.3,21.7C-264.4,21.7-264.3,21.7-264.3,21.7
			L-264.3,21.7z M-265.7,21.6c0-0.1,0.1-0.3,0.2-0.4c0.1-0.1,0.2-0.1,0.4-0.1c0.1,0,0.1,0,0.2,0c0.1,0,0.1,0.1,0.2,0.1
			c0.1,0,0.1,0.1,0.1,0.2c0,0.1,0,0.1,0,0.2H-265.7z M-262.8,22.4v-2.3h-0.2v2.3H-262.8z M-261.4,20.9c-0.1,0-0.2,0-0.3,0.1
			c-0.1,0.1-0.2,0.1-0.2,0.2v-0.3h-0.2v1.5h0.2v-0.9c0-0.1,0-0.1,0-0.2c0-0.1,0.1-0.1,0.1-0.2c0,0,0.1-0.1,0.2-0.1
			c0.1,0,0.1,0,0.2,0c0.1,0,0.1,0,0.2,0c0.1,0,0.1,0.1,0.1,0.1s0.1,0.1,0.1,0.2c0,0.1,0,0.1,0,0.2v0.9h0.2v-0.9c0-0.1,0-0.2,0-0.3
			c0-0.1-0.1-0.2-0.1-0.2c-0.1-0.1-0.1-0.1-0.2-0.2C-261.3,20.9-261.4,20.9-261.4,20.9L-261.4,20.9z M-259.5,20.3v-0.2h-0.1
			c-0.4,0-0.6,0.3-0.6,0.7v0.2h-0.3v0.2h0.3v1.4h0.2v-1.4h0.4v-0.2h-0.4v-0.2c0-0.2,0.1-0.4,0.4-0.4L-259.5,20.3z M-258.6,20.9
			c-0.1,0-0.2,0-0.3,0.1c-0.1,0.1-0.1,0.2-0.2,0.3v-0.4h-0.2v1.5h0.2v-0.6c0-0.4,0.1-0.8,0.5-0.8c0.1,0,0.1,0,0.2,0l0-0.2
			C-258.4,20.9-258.5,20.9-258.6,20.9z M-256.8,21.2c-0.1-0.1-0.2-0.2-0.3-0.3c-0.1-0.1-0.2-0.1-0.4-0.1c-0.1,0-0.2,0-0.3,0.1
			c-0.1,0-0.2,0.1-0.3,0.2s-0.1,0.2-0.2,0.3s-0.1,0.2-0.1,0.3c0,0.1,0,0.2,0.1,0.3c0,0.1,0.1,0.2,0.2,0.3c0.1,0.1,0.2,0.1,0.3,0.2
			c0.1,0,0.2,0.1,0.3,0.1c0.1,0,0.3,0,0.4-0.1c0.1-0.1,0.2-0.2,0.3-0.3v0.3h0.2v-1.5h-0.2L-256.8,21.2z M-257.4,22.3
			c-0.2,0-0.3-0.1-0.4-0.2c-0.1-0.1-0.2-0.3-0.2-0.4c0-0.2,0.1-0.3,0.2-0.4c0.1-0.1,0.3-0.2,0.4-0.2c0.1,0,0.2,0,0.2,0
			c0.1,0,0.1,0.1,0.2,0.1c0.1,0.1,0.1,0.1,0.1,0.2c0,0.1,0,0.2,0,0.2c0,0.1,0,0.2,0,0.2c0,0.1-0.1,0.1-0.1,0.2
			c-0.1,0.1-0.1,0.1-0.2,0.1C-257.3,22.3-257.4,22.3-257.4,22.3z M-255.2,20.2v2.3h0.9c0.1,0,0.3,0,0.4-0.1c0.1-0.1,0.2-0.1,0.3-0.3
			c0.1-0.1,0.2-0.2,0.2-0.4c0-0.1,0.1-0.3,0-0.4c0-0.1,0-0.3,0-0.4s-0.1-0.3-0.2-0.4c-0.1-0.1-0.2-0.2-0.3-0.3
			c-0.1-0.1-0.3-0.1-0.4-0.1L-255.2,20.2z M-254.9,22.2v-1.9h0.6c0.5,0,0.8,0.4,0.8,0.9c0,0.5-0.3,0.9-0.8,0.9H-254.9z M-251.4,21.7
			c0-0.1,0-0.2,0-0.3c0-0.1-0.1-0.2-0.2-0.3c-0.1-0.1-0.2-0.1-0.3-0.2c-0.1,0-0.2-0.1-0.3-0.1c-0.1,0-0.2,0-0.3,0.1
			c-0.1,0-0.2,0.1-0.3,0.2c-0.1,0.1-0.1,0.2-0.2,0.3c0,0.1-0.1,0.2,0,0.3c0,0.1,0,0.2,0,0.3s0.1,0.2,0.2,0.3
			c0.1,0.1,0.2,0.1,0.3,0.2c0.1,0,0.2,0.1,0.3,0.1c0.1,0,0.3,0,0.4-0.1c0.1-0.1,0.2-0.2,0.3-0.3l-0.2-0.1c-0.1,0.1-0.1,0.2-0.2,0.2
			c-0.1,0-0.2,0.1-0.3,0.1c-0.1,0-0.3,0-0.4-0.1c-0.1-0.1-0.2-0.2-0.2-0.4L-251.4,21.7C-251.4,21.7-251.4,21.7-251.4,21.7
			L-251.4,21.7z M-252.7,21.6c0-0.1,0.1-0.3,0.2-0.4c0.1-0.1,0.2-0.1,0.4-0.1c0.1,0,0.1,0,0.2,0c0.1,0,0.1,0.1,0.2,0.1
			c0.1,0,0.1,0.1,0.1,0.2c0,0.1,0,0.1,0,0.2H-252.7z M-249.7,21.2c-0.1-0.1-0.2-0.2-0.3-0.3c-0.1-0.1-0.2-0.1-0.4-0.1
			c-0.1,0-0.2,0-0.3,0.1c-0.1,0-0.2,0.1-0.3,0.2c-0.1,0.1-0.1,0.2-0.2,0.3s-0.1,0.2-0.1,0.3c0,0.1,0,0.2,0.1,0.3
			c0,0.1,0.1,0.2,0.2,0.3c0.1,0.1,0.2,0.1,0.3,0.2c0.1,0,0.2,0.1,0.3,0.1c0.1,0,0.3,0,0.4-0.1c0.1-0.1,0.2-0.2,0.3-0.3v0.3h0.2v-1.5
			h-0.2L-249.7,21.2z M-250.3,22.3c-0.2,0-0.3-0.1-0.4-0.2c-0.1-0.1-0.2-0.3-0.2-0.4c0-0.2,0.1-0.3,0.2-0.4c0.1-0.1,0.3-0.2,0.4-0.2
			c0.1,0,0.2,0,0.2,0c0.1,0,0.1,0.1,0.2,0.1c0.1,0.1,0.1,0.1,0.1,0.2c0,0.1,0,0.2,0,0.2c0,0.1,0,0.2,0,0.2c0,0.1-0.1,0.1-0.1,0.2
			c-0.1,0.1-0.1,0.1-0.2,0.1S-250.2,22.3-250.3,22.3z M-248.7,22.4v-2.4h-0.2v2.4L-248.7,22.4z M-247.7,22.5c0.3,0,0.6-0.2,0.6-0.5
			c0-0.2-0.1-0.4-0.4-0.4l-0.2-0.1c-0.1,0-0.2-0.1-0.2-0.2c0,0,0-0.1,0-0.1c0,0,0-0.1,0.1-0.1c0,0,0.1,0,0.1-0.1c0,0,0.1,0,0.1,0
			c0.1,0,0.1,0,0.2,0.1c0.1,0,0.1,0.1,0.1,0.2h0.2c0-0.1,0-0.1,0-0.2c0-0.1-0.1-0.1-0.1-0.1c0,0-0.1-0.1-0.2-0.1c-0.1,0-0.1,0-0.2,0
			c-0.1,0-0.1,0-0.2,0c-0.1,0-0.1,0.1-0.2,0.1c0,0-0.1,0.1-0.1,0.1c0,0.1,0,0.1,0,0.2c0,0.3,0.2,0.4,0.4,0.4l0.2,0.1
			c0.2,0,0.2,0.1,0.2,0.2c0,0.2-0.1,0.3-0.4,0.3c-0.1,0-0.2,0-0.2-0.1s-0.1-0.1-0.1-0.2h-0.2c0,0.1,0.1,0.3,0.2,0.3
			C-248,22.5-247.9,22.5-247.7,22.5L-247.7,22.5z M-244.4,22.1l-1.2-1.9h-0.2v2.3h0.2v-1.9l1.2,1.9h0.2v-2.3h-0.2L-244.4,22.1z
			 M-242.2,21.7c0-0.1,0-0.2,0-0.3c0-0.1-0.1-0.2-0.2-0.3c-0.1-0.1-0.2-0.1-0.3-0.2c-0.1,0-0.2-0.1-0.3-0.1c-0.1,0-0.2,0-0.3,0.1
			c-0.1,0-0.2,0.1-0.3,0.2c-0.1,0.1-0.1,0.2-0.2,0.3c0,0.1-0.1,0.2,0,0.3c0,0.1,0,0.2,0,0.3c0,0.1,0.1,0.2,0.2,0.3
			c0.1,0.1,0.2,0.1,0.3,0.2c0.1,0,0.2,0.1,0.3,0.1c0.1,0,0.3,0,0.4-0.1c0.1-0.1,0.2-0.2,0.3-0.3l-0.2-0.1c-0.1,0.1-0.1,0.2-0.2,0.2
			c-0.1,0-0.2,0.1-0.3,0.1c-0.1,0-0.3,0-0.4-0.1c-0.1-0.1-0.2-0.2-0.2-0.4L-242.2,21.7C-242.2,21.7-242.2,21.7-242.2,21.7
			L-242.2,21.7z M-243.5,21.6c0-0.1,0.1-0.3,0.2-0.4c0.1-0.1,0.2-0.1,0.4-0.1c0.1,0,0.1,0,0.2,0c0.1,0,0.1,0.1,0.2,0.1
			c0.1,0,0.1,0.1,0.1,0.2c0,0.1,0,0.1,0,0.2H-243.5z M-241.5,20.9v-0.6h-0.2v0.6h-0.3v0.2h0.3v1.4h0.2v-1.4h0.4v-0.2H-241.5z
			 M-239.2,22.1l-0.5-1.2h-0.2l-0.5,1.2l-0.5-1.2h-0.2l0.6,1.5h0.2l0.5-1.3l0.5,1.3h0.2l0.6-1.5h-0.2L-239.2,22.1z M-237.5,22.5
			c0.1,0,0.2,0,0.3-0.1c0.1,0,0.2-0.1,0.3-0.2c0.1-0.1,0.1-0.2,0.2-0.3c0-0.1,0.1-0.2,0.1-0.3c0-0.1,0-0.2-0.1-0.3
			c0-0.1-0.1-0.2-0.2-0.3c-0.1-0.1-0.2-0.1-0.3-0.2c-0.1,0-0.2-0.1-0.3-0.1c-0.1,0-0.2,0-0.3,0.1s-0.2,0.1-0.3,0.2
			c-0.1,0.1-0.1,0.2-0.2,0.3c0,0.1-0.1,0.2-0.1,0.3c0,0.1,0,0.2,0.1,0.3c0,0.1,0.1,0.2,0.2,0.3c0.1,0.1,0.2,0.1,0.3,0.2
			C-237.7,22.5-237.6,22.5-237.5,22.5L-237.5,22.5z M-237.5,22.3c-0.1,0-0.2,0-0.2,0c-0.1,0-0.1-0.1-0.2-0.1
			c-0.1-0.1-0.1-0.1-0.1-0.2c0-0.1,0-0.2,0-0.2c0-0.1,0-0.2,0-0.2s0.1-0.1,0.1-0.2c0.1-0.1,0.1-0.1,0.2-0.1c0.1,0,0.2,0,0.2,0
			c0.1,0,0.2,0,0.2,0c0.1,0,0.1,0.1,0.2,0.1s0.1,0.1,0.1,0.2c0,0.1,0,0.2,0,0.2c0,0.1,0,0.2,0,0.2c0,0.1-0.1,0.1-0.1,0.2
			c-0.1,0.1-0.1,0.1-0.2,0.1C-237.4,22.3-237.4,22.3-237.5,22.3L-237.5,22.3z M-235.6,20.9c-0.1,0-0.2,0-0.3,0.1
			c-0.1,0.1-0.1,0.2-0.2,0.3v-0.4h-0.2v1.5h0.2v-0.6c0-0.4,0.1-0.8,0.5-0.8c0.1,0,0.1,0,0.2,0l0-0.2
			C-235.4,20.9-235.5,20.9-235.6,20.9L-235.6,20.9z M-234.6,21.6l0.7-0.7h-0.3l-0.6,0.6v-1.4h-0.2v2.4h0.2v-0.8l0.8,0.8h0.3
			L-234.6,21.6z"/>
		<path class="st2" d="M-273.9,1.3H-290v16.2h16.2V1.3z"/>
		<path class="st2" d="M-276.5,3.9h-15.7v16.2h15.7V3.9z"/>
		<path class="st2" d="M-278.6,6.9h-16.2v15.7h16.2V6.9z"/>
		<path class="st3" d="M1.9,5.5C1.9,5.2,2.1,5,2.4,5h30c0.3,0,0.5,0.2,0.5,0.5v1c0,0.3-0.2,0.5-0.5,0.5h-30C2.1,7,1.9,6.8,1.9,6.5
			V5.5z M1.9,11.5c0-0.3,0.2-0.5,0.5-0.5h30c0.3,0,0.5,0.2,0.5,0.5v1c0,0.3-0.2,0.5-0.5,0.5h-30c-0.3,0-0.5-0.2-0.5-0.5V11.5z
			 M2.4,17c-0.3,0-0.5,0.2-0.5,0.5v1c0,0.3,0.2,0.5,0.5,0.5h30c0.3,0,0.5-0.2,0.5-0.5v-1c0-0.3-0.2-0.5-0.5-0.5H2.4z"/>
	</g>
</g>
</svg>
