<svg xmlns="http://www.w3.org/2000/svg" width="48" height="44.813" viewBox="0 0 48 44.813">
  <g id="chat_3" data-name="chat 3" transform="translate(0 -1.593)">
    <g id="Group">
      <path id="Vector" d="M31.237,9.191A16.465,16.465,0,0,0,0,16.406a16.23,16.23,0,0,0,1.57,7.012L.028,31.13A1.407,1.407,0,0,0,1.68,32.785l7.807-1.544a16.176,16.176,0,0,0,3.256,1.139A19.239,19.239,0,0,1,31.237,9.191Z" transform="translate(0 1.593)" fill="#3680f6"/>
      <path id="Vector-2" data-name="Vector" d="M31.289,23.417a16.358,16.358,0,0,0,.7-1.736h-.051A16.424,16.424,0,0,0,17.17.019v0a16.405,16.405,0,1,0-.788,32.793,16.227,16.227,0,0,0,6.991-1.57c8.55,1.69,7.884,1.57,8.08,1.57a1.407,1.407,0,0,0,1.379-1.682Z" transform="translate(15.141 13.594)" fill="#3680f6"/>
    </g>
  </g>
</svg>
