<svg xmlns="http://www.w3.org/2000/svg" width="59.672" height="40" viewBox="0 0 59.672 40">
  <g id="delivery-truck" transform="translate(-336 -2476)">
    <path id="Path" d="M0,7.471A1.017,1.017,0,0,0,1.037,8.525H2.692a7.281,7.281,0,0,1,13.17,0H37.377V0H0Z" transform="translate(336 2499.606)" fill="#3874ff"/>
    <path id="Path-2" data-name="Path" d="M5.246,0a5.246,5.246,0,1,0,5.246,5.246A5.246,5.246,0,0,0,5.246,0Z" transform="translate(339.934 2505.508)" fill="#3874ff"/>
    <path id="Path-3" data-name="Path" d="M19.674,2.042,14.9,0H0V14.426H2.892a7.473,7.473,0,0,1,13.54,0h2.83a1.048,1.048,0,0,0,1.066-1.088V3.091A1.118,1.118,0,0,0,19.674,2.042Z" transform="translate(375.344 2493.705)" fill="#3874ff"/>
    <path id="Path-4" data-name="Path" d="M9.926,1.8A3.394,3.394,0,0,0,6.868,0H0V7.869H13.115Z" transform="translate(375.344 2483.869)" fill="#3874ff"/>
    <path id="Path-5" data-name="Path" d="M34.063,0H3.3A3.308,3.308,0,0,0,0,3.347V20.984H37.377V3.347c0-.005,0-.01,0-.015A3.322,3.322,0,0,0,34.063,0Z" transform="translate(336 2476)" fill="#3874ff"/>
    <path id="Path-6" data-name="Path" d="M5.246,0a5.246,5.246,0,1,0,5.246,5.246h0A5.246,5.246,0,0,0,5.246,0Z" transform="translate(379.279 2505.508)" fill="#3874ff"/>
  </g>
</svg>
