<svg xmlns="http://www.w3.org/2000/svg" width="20" height="18.003" viewBox="0 0 20 18.003">
  <g id="Group" transform="translate(0 -0.998)">
    <g id="Group-2" data-name="Group">
      <path id="Vector" d="M18,0a1.995,1.995,0,0,0-1.438,3.383l-3.653,7.31a1.641,1.641,0,0,0-.242-.023,2,2,0,0,0-.754.148L9.08,7.627a2,2,0,1,0-3.743-.961,1.985,1.985,0,0,0,.492,1.3L2.356,14.038A1.828,1.828,0,0,0,2,14a2.028,2.028,0,1,0,1.508.7L6.978,8.631a1.881,1.881,0,0,0,1.106-.113l2.836,3.192a2,2,0,1,0,3.184-.422l3.653-7.31A1.641,1.641,0,0,0,18,4a2,2,0,0,0,0-4Z" transform="translate(0 0.998)" fill="#3680f6"/>
    </g>
  </g>
</svg>
