<svg xmlns="http://www.w3.org/2000/svg" width="210.001" height="180.732" viewBox="0 0 210.001 180.732">
  <path id="Combined_Shape" data-name="Combined Shape" d="M1594.166,2319.224a2.95,2.95,0,1,1,2.916,2.509A2.736,2.736,0,0,1,1594.166,2319.224Zm-29.166,0a2.95,2.95,0,1,1,2.917,2.509A2.737,2.737,0,0,1,1565,2319.224Zm-29.166,0a2.95,2.95,0,1,1,2.917,2.509A2.737,2.737,0,0,1,1535.834,2319.224Zm-29.168,0a2.95,2.95,0,1,1,2.917,2.509A2.737,2.737,0,0,1,1506.666,2319.224Zm-29.165,0a2.95,2.95,0,1,1,2.916,2.509A2.736,2.736,0,0,1,1477.5,2319.224Zm-29.166,0a2.95,2.95,0,1,1,2.917,2.509A2.737,2.737,0,0,1,1448.334,2319.224Zm-29.168,0a2.95,2.95,0,1,1,2.917,2.509A2.737,2.737,0,0,1,1419.166,2319.224Zm-29.166,0a2.95,2.95,0,1,1,2.917,2.509A2.737,2.737,0,0,1,1390,2319.224Zm204.167-25.1a2.949,2.949,0,1,1,2.916,2.51A2.737,2.737,0,0,1,1594.166,2294.121Zm-29.166,0a2.949,2.949,0,1,1,2.917,2.51A2.737,2.737,0,0,1,1565,2294.121Zm-29.166,0a2.95,2.95,0,1,1,2.917,2.51A2.737,2.737,0,0,1,1535.834,2294.121Zm-29.168,0a2.95,2.95,0,1,1,2.917,2.51A2.737,2.737,0,0,1,1506.666,2294.121Zm-29.165,0a2.949,2.949,0,1,1,2.916,2.51A2.737,2.737,0,0,1,1477.5,2294.121Zm-29.166,0a2.949,2.949,0,1,1,2.917,2.51A2.737,2.737,0,0,1,1448.334,2294.121Zm-29.168,0a2.95,2.95,0,1,1,2.917,2.51A2.737,2.737,0,0,1,1419.166,2294.121Zm-29.166,0a2.95,2.95,0,1,1,2.917,2.51A2.737,2.737,0,0,1,1390,2294.121Zm204.167-25.1a2.949,2.949,0,1,1,2.916,2.51A2.736,2.736,0,0,1,1594.166,2269.019Zm-29.166,0a2.949,2.949,0,1,1,2.917,2.51A2.737,2.737,0,0,1,1565,2269.019Zm-29.166,0a2.95,2.95,0,1,1,2.917,2.51A2.737,2.737,0,0,1,1535.834,2269.019Zm-29.168,0a2.95,2.95,0,1,1,2.917,2.51A2.737,2.737,0,0,1,1506.666,2269.019Zm-29.165,0a2.949,2.949,0,1,1,2.916,2.51A2.736,2.736,0,0,1,1477.5,2269.019Zm-29.166,0a2.949,2.949,0,1,1,2.917,2.51A2.737,2.737,0,0,1,1448.334,2269.019Zm-29.168,0a2.95,2.95,0,1,1,2.917,2.51A2.737,2.737,0,0,1,1419.166,2269.019Zm-29.166,0a2.95,2.95,0,1,1,2.917,2.51A2.737,2.737,0,0,1,1390,2269.019Zm204.167-25.1a2.949,2.949,0,1,1,2.916,2.51A2.736,2.736,0,0,1,1594.166,2243.918Zm-29.166,0a2.949,2.949,0,1,1,2.917,2.51A2.737,2.737,0,0,1,1565,2243.918Zm-29.166,0a2.95,2.95,0,1,1,2.917,2.51A2.737,2.737,0,0,1,1535.834,2243.918Zm-29.168,0a2.95,2.95,0,1,1,2.917,2.51A2.737,2.737,0,0,1,1506.666,2243.918Zm-29.165,0a2.949,2.949,0,1,1,2.916,2.51A2.736,2.736,0,0,1,1477.5,2243.918Zm-29.166,0a2.949,2.949,0,1,1,2.917,2.51A2.737,2.737,0,0,1,1448.334,2243.918Zm-29.168,0a2.95,2.95,0,1,1,2.917,2.51A2.737,2.737,0,0,1,1419.166,2243.918Zm-29.166,0a2.95,2.95,0,1,1,2.917,2.51A2.737,2.737,0,0,1,1390,2243.918Zm204.167-25.1a2.949,2.949,0,1,1,2.916,2.51A2.736,2.736,0,0,1,1594.166,2218.816Zm-29.166,0a2.949,2.949,0,1,1,2.917,2.51A2.736,2.736,0,0,1,1565,2218.816Zm-29.166,0a2.95,2.95,0,1,1,2.917,2.51A2.736,2.736,0,0,1,1535.834,2218.816Zm-29.168,0a2.95,2.95,0,1,1,2.917,2.51A2.736,2.736,0,0,1,1506.666,2218.816Zm-29.165,0a2.949,2.949,0,1,1,2.916,2.51A2.736,2.736,0,0,1,1477.5,2218.816Zm-29.166,0a2.949,2.949,0,1,1,2.917,2.51A2.736,2.736,0,0,1,1448.334,2218.816Zm-29.168,0a2.95,2.95,0,1,1,2.917,2.51A2.736,2.736,0,0,1,1419.166,2218.816Zm-29.166,0a2.95,2.95,0,1,1,2.917,2.51A2.736,2.736,0,0,1,1390,2218.816Zm204.167-25.1a2.95,2.95,0,1,1,2.916,2.509A2.736,2.736,0,0,1,1594.166,2193.714Zm-29.166,0a2.95,2.95,0,1,1,2.917,2.509A2.737,2.737,0,0,1,1565,2193.714Zm-29.166,0a2.95,2.95,0,1,1,2.917,2.509A2.737,2.737,0,0,1,1535.834,2193.714Zm-29.168,0a2.95,2.95,0,1,1,2.917,2.509A2.737,2.737,0,0,1,1506.666,2193.714Zm-29.165,0a2.95,2.95,0,1,1,2.916,2.509A2.736,2.736,0,0,1,1477.5,2193.714Zm-29.166,0a2.95,2.95,0,1,1,2.917,2.509A2.737,2.737,0,0,1,1448.334,2193.714Zm-29.168,0a2.95,2.95,0,1,1,2.917,2.509A2.737,2.737,0,0,1,1419.166,2193.714Zm-29.166,0a2.95,2.95,0,1,1,2.917,2.509A2.737,2.737,0,0,1,1390,2193.714Zm204.167-25.1a2.949,2.949,0,1,1,2.916,2.51A2.736,2.736,0,0,1,1594.166,2168.612Zm-29.166,0a2.949,2.949,0,1,1,2.917,2.51A2.737,2.737,0,0,1,1565,2168.612Zm-29.166,0a2.95,2.95,0,1,1,2.917,2.51A2.737,2.737,0,0,1,1535.834,2168.612Zm-29.168,0a2.95,2.95,0,1,1,2.917,2.51A2.737,2.737,0,0,1,1506.666,2168.612Zm-29.165,0a2.949,2.949,0,1,1,2.916,2.51A2.736,2.736,0,0,1,1477.5,2168.612Zm-29.166,0a2.949,2.949,0,1,1,2.917,2.51A2.737,2.737,0,0,1,1448.334,2168.612Zm-29.168,0a2.95,2.95,0,1,1,2.917,2.51A2.737,2.737,0,0,1,1419.166,2168.612Zm-29.166,0a2.95,2.95,0,1,1,2.917,2.51A2.737,2.737,0,0,1,1390,2168.612Zm204.167-25.1a2.95,2.95,0,1,1,2.917,2.51A2.737,2.737,0,0,1,1594.166,2143.51Zm-29.166,0a2.949,2.949,0,1,1,2.917,2.51A2.737,2.737,0,0,1,1565,2143.51Zm-29.167,0a2.95,2.95,0,1,1,2.917,2.51A2.737,2.737,0,0,1,1535.833,2143.51Zm-29.166,0a2.95,2.95,0,1,1,2.917,2.51A2.737,2.737,0,0,1,1506.667,2143.51Zm-29.166,0a2.949,2.949,0,1,1,2.916,2.51A2.736,2.736,0,0,1,1477.5,2143.51Zm-29.167,0a2.95,2.95,0,1,1,2.917,2.51A2.737,2.737,0,0,1,1448.333,2143.51Zm-29.166,0a2.949,2.949,0,1,1,2.916,2.51A2.736,2.736,0,0,1,1419.167,2143.51Zm-29.167,0a2.95,2.95,0,1,1,2.917,2.51A2.737,2.737,0,0,1,1390,2143.51Z" transform="translate(-1390 -2141)" fill="#3680f6"/>
</svg>
