<svg xmlns="http://www.w3.org/2000/svg" width="180" height="180" viewBox="0 0 180 180">
  <defs>
    <style>
      .cls-1 {
        fill: #3680f6;
      }
    </style>
  </defs>
  <g id="dots" transform="translate(4539 21034)">
    <circle id="Ellipse_36" data-name="Ellipse 36" class="cls-1" cx="2.5" cy="2.5" r="2.5" transform="translate(-4539 -20859)"/>
    <circle id="Ellipse_66" data-name="Ellipse 66" class="cls-1" cx="2.5" cy="2.5" r="2.5" transform="translate(-4539 -20934)"/>
    <circle id="Ellipse_44" data-name="Ellipse 44" class="cls-1" cx="2.5" cy="2.5" r="2.5" transform="translate(-4539 -20884)"/>
    <circle id="Ellipse_61" data-name="Ellipse 61" class="cls-1" cx="2.5" cy="2.5" r="2.5" transform="translate(-4539 -20959)"/>
    <circle id="Ellipse_92" data-name="Ellipse 92" class="cls-1" cx="2.5" cy="2.5" r="2.5" transform="translate(-4539 -21009)"/>
    <circle id="Ellipse_52" data-name="Ellipse 52" class="cls-1" cx="2.5" cy="2.5" r="2.5" transform="translate(-4539 -20909)"/>
    <circle id="Ellipse_60" data-name="Ellipse 60" class="cls-1" cx="2.5" cy="2.5" r="2.5" transform="translate(-4539 -20984)"/>
    <circle id="Ellipse_84" data-name="Ellipse 84" class="cls-1" cx="2.5" cy="2.5" r="2.5" transform="translate(-4539 -21034)"/>
    <circle id="Ellipse_40" data-name="Ellipse 40" class="cls-1" cx="2.5" cy="2.5" r="2.5" transform="translate(-4439 -20859)"/>
    <circle id="Ellipse_72" data-name="Ellipse 72" class="cls-1" cx="2.5" cy="2.5" r="2.5" transform="translate(-4439 -20934)"/>
    <circle id="Ellipse_48" data-name="Ellipse 48" class="cls-1" cx="2.5" cy="2.5" r="2.5" transform="translate(-4439 -20884)"/>
    <circle id="Ellipse_73" data-name="Ellipse 73" class="cls-1" cx="2.5" cy="2.5" r="2.5" transform="translate(-4439 -20959)"/>
    <circle id="Ellipse_93" data-name="Ellipse 93" class="cls-1" cx="2.5" cy="2.5" r="2.5" transform="translate(-4439 -21009)"/>
    <circle id="Ellipse_56" data-name="Ellipse 56" class="cls-1" cx="2.5" cy="2.5" r="2.5" transform="translate(-4439 -20909)"/>
    <circle id="Ellipse_74" data-name="Ellipse 74" class="cls-1" cx="2.5" cy="2.5" r="2.5" transform="translate(-4439 -20984)"/>
    <circle id="Ellipse_88" data-name="Ellipse 88" class="cls-1" cx="2.5" cy="2.5" r="2.5" transform="translate(-4439 -21034)"/>
    <circle id="Ellipse_38" data-name="Ellipse 38" class="cls-1" cx="2.5" cy="2.5" r="2.5" transform="translate(-4489 -20859)"/>
    <circle id="Ellipse_67" data-name="Ellipse 67" class="cls-1" cx="2.5" cy="2.5" r="2.5" transform="translate(-4489 -20934)"/>
    <circle id="Ellipse_45" data-name="Ellipse 45" class="cls-1" cx="2.5" cy="2.5" r="2.5" transform="translate(-4489 -20884)"/>
    <circle id="Ellipse_62" data-name="Ellipse 62" class="cls-1" cx="2.5" cy="2.5" r="2.5" transform="translate(-4489 -20959)"/>
    <circle id="Ellipse_94" data-name="Ellipse 94" class="cls-1" cx="2.5" cy="2.5" r="2.5" transform="translate(-4489 -21009)"/>
    <circle id="Ellipse_53" data-name="Ellipse 53" class="cls-1" cx="2.5" cy="2.5" r="2.5" transform="translate(-4489 -20909)"/>
    <circle id="Ellipse_63" data-name="Ellipse 63" class="cls-1" cx="2.5" cy="2.5" r="2.5" transform="translate(-4489 -20984)"/>
    <circle id="Ellipse_86" data-name="Ellipse 86" class="cls-1" cx="2.5" cy="2.5" r="2.5" transform="translate(-4489 -21034)"/>
    <circle id="Ellipse_42" data-name="Ellipse 42" class="cls-1" cx="2.5" cy="2.5" r="2.5" transform="translate(-4389 -20859)"/>
    <circle id="Ellipse_78" data-name="Ellipse 78" class="cls-1" cx="2.5" cy="2.5" r="2.5" transform="translate(-4389 -20934)"/>
    <circle id="Ellipse_49" data-name="Ellipse 49" class="cls-1" cx="2.5" cy="2.5" r="2.5" transform="translate(-4389 -20884)"/>
    <circle id="Ellipse_79" data-name="Ellipse 79" class="cls-1" cx="2.5" cy="2.5" r="2.5" transform="translate(-4389 -20959)"/>
    <circle id="Ellipse_95" data-name="Ellipse 95" class="cls-1" cx="2.5" cy="2.5" r="2.5" transform="translate(-4389 -21009)"/>
    <circle id="Ellipse_57" data-name="Ellipse 57" class="cls-1" cx="2.5" cy="2.5" r="2.5" transform="translate(-4389 -20909)"/>
    <circle id="Ellipse_80" data-name="Ellipse 80" class="cls-1" cx="2.5" cy="2.5" r="2.5" transform="translate(-4389 -20984)"/>
    <circle id="Ellipse_90" data-name="Ellipse 90" class="cls-1" cx="2.5" cy="2.5" r="2.5" transform="translate(-4389 -21034)"/>
    <circle id="Ellipse_37" data-name="Ellipse 37" class="cls-1" cx="2.5" cy="2.5" r="2.5" transform="translate(-4514 -20859)"/>
    <circle id="Ellipse_68" data-name="Ellipse 68" class="cls-1" cx="2.5" cy="2.5" r="2.5" transform="translate(-4514 -20934)"/>
    <circle id="Ellipse_46" data-name="Ellipse 46" class="cls-1" cx="2.5" cy="2.5" r="2.5" transform="translate(-4514 -20884)"/>
    <circle id="Ellipse_64" data-name="Ellipse 64" class="cls-1" cx="2.5" cy="2.5" r="2.5" transform="translate(-4514 -20959)"/>
    <circle id="Ellipse_96" data-name="Ellipse 96" class="cls-1" cx="2.5" cy="2.5" r="2.5" transform="translate(-4514 -21009)"/>
    <circle id="Ellipse_54" data-name="Ellipse 54" class="cls-1" cx="2.5" cy="2.5" r="2.5" transform="translate(-4514 -20909)"/>
    <circle id="Ellipse_65" data-name="Ellipse 65" class="cls-1" cx="2.5" cy="2.5" r="2.5" transform="translate(-4514 -20984)"/>
    <circle id="Ellipse_85" data-name="Ellipse 85" class="cls-1" cx="2.5" cy="2.5" r="2.5" transform="translate(-4514 -21034)"/>
    <circle id="Ellipse_41" data-name="Ellipse 41" class="cls-1" cx="2.5" cy="2.5" r="2.5" transform="translate(-4414 -20859)"/>
    <circle id="Ellipse_75" data-name="Ellipse 75" class="cls-1" cx="2.5" cy="2.5" r="2.5" transform="translate(-4414 -20934)"/>
    <circle id="Ellipse_50" data-name="Ellipse 50" class="cls-1" cx="2.5" cy="2.5" r="2.5" transform="translate(-4414 -20884)"/>
    <circle id="Ellipse_76" data-name="Ellipse 76" class="cls-1" cx="2.5" cy="2.5" r="2.5" transform="translate(-4414 -20959)"/>
    <circle id="Ellipse_97" data-name="Ellipse 97" class="cls-1" cx="2.5" cy="2.5" r="2.5" transform="translate(-4414 -21009)"/>
    <circle id="Ellipse_58" data-name="Ellipse 58" class="cls-1" cx="2.5" cy="2.5" r="2.5" transform="translate(-4414 -20909)"/>
    <circle id="Ellipse_77" data-name="Ellipse 77" class="cls-1" cx="2.5" cy="2.5" r="2.5" transform="translate(-4414 -20984)"/>
    <circle id="Ellipse_89" data-name="Ellipse 89" class="cls-1" cx="2.5" cy="2.5" r="2.5" transform="translate(-4414 -21034)"/>
    <circle id="Ellipse_39" data-name="Ellipse 39" class="cls-1" cx="2.5" cy="2.5" r="2.5" transform="translate(-4464 -20859)"/>
    <circle id="Ellipse_69" data-name="Ellipse 69" class="cls-1" cx="2.5" cy="2.5" r="2.5" transform="translate(-4464 -20934)"/>
    <circle id="Ellipse_47" data-name="Ellipse 47" class="cls-1" cx="2.5" cy="2.5" r="2.5" transform="translate(-4464 -20884)"/>
    <circle id="Ellipse_70" data-name="Ellipse 70" class="cls-1" cx="2.5" cy="2.5" r="2.5" transform="translate(-4464 -20959)"/>
    <circle id="Ellipse_98" data-name="Ellipse 98" class="cls-1" cx="2.5" cy="2.5" r="2.5" transform="translate(-4464 -21009)"/>
    <circle id="Ellipse_55" data-name="Ellipse 55" class="cls-1" cx="2.5" cy="2.5" r="2.5" transform="translate(-4464 -20909)"/>
    <circle id="Ellipse_71" data-name="Ellipse 71" class="cls-1" cx="2.5" cy="2.5" r="2.5" transform="translate(-4464 -20984)"/>
    <circle id="Ellipse_87" data-name="Ellipse 87" class="cls-1" cx="2.5" cy="2.5" r="2.5" transform="translate(-4464 -21034)"/>
    <circle id="Ellipse_43" data-name="Ellipse 43" class="cls-1" cx="2.5" cy="2.5" r="2.5" transform="translate(-4364 -20859)"/>
    <circle id="Ellipse_81" data-name="Ellipse 81" class="cls-1" cx="2.5" cy="2.5" r="2.5" transform="translate(-4364 -20934)"/>
    <circle id="Ellipse_51" data-name="Ellipse 51" class="cls-1" cx="2.5" cy="2.5" r="2.5" transform="translate(-4364 -20884)"/>
    <circle id="Ellipse_82" data-name="Ellipse 82" class="cls-1" cx="2.5" cy="2.5" r="2.5" transform="translate(-4364 -20959)"/>
    <circle id="Ellipse_99" data-name="Ellipse 99" class="cls-1" cx="2.5" cy="2.5" r="2.5" transform="translate(-4364 -21009)"/>
    <circle id="Ellipse_59" data-name="Ellipse 59" class="cls-1" cx="2.5" cy="2.5" r="2.5" transform="translate(-4364 -20909)"/>
    <circle id="Ellipse_83" data-name="Ellipse 83" class="cls-1" cx="2.5" cy="2.5" r="2.5" transform="translate(-4364 -20984)"/>
    <circle id="Ellipse_91" data-name="Ellipse 91" class="cls-1" cx="2.5" cy="2.5" r="2.5" transform="translate(-4364 -21034)"/>
  </g>
</svg>
