<svg id="exchange_1" data-name="exchange 1" xmlns="http://www.w3.org/2000/svg" width="48" height="48" viewBox="0 0 48 48">
  <g id="Group">
    <path id="Vector" d="M3.048,0H0V4.319A4.479,4.479,0,0,0,3.048,0Z" transform="translate(12.281)" fill="#3680f6"/>
    <path id="Vector-2" data-name="Vector" d="M2.8,1.388A1.4,1.4,0,1,1,1.4,0,1.394,1.394,0,0,1,2.8,1.388Z" transform="translate(28.742 8.924)" fill="#3680f6"/>
    <path id="Vector-3" data-name="Vector" d="M0,0V4.319H3.048A4.479,4.479,0,0,0,0,0Z" transform="translate(12.281 16.306)" fill="#3680f6"/>
    <path id="Vector-4" data-name="Vector" d="M0,0A4.479,4.479,0,0,0,3.048,4.319V0Z" transform="translate(44.952)" fill="#3680f6"/>
    <path id="Vector-5" data-name="Vector" d="M29.414,0H6.3A7.694,7.694,0,0,1,0,7.659v5.308a7.694,7.694,0,0,1,6.3,7.659H29.414a7.694,7.694,0,0,1,6.3-7.659V7.659A7.694,7.694,0,0,1,29.414,0ZM10.885,11.719H8.08V8.906h2.8Zm6.974,2.795a4.2,4.2,0,1,1,4.211-4.2A4.211,4.211,0,0,1,17.859,14.513Zm9.779-2.795h-2.8V8.906h2.8Z" transform="translate(12.281)" fill="#3680f6"/>
    <path id="Vector-6" data-name="Vector" d="M0,4.319H3.048V0A4.479,4.479,0,0,0,0,4.319Z" transform="translate(44.952 16.306)" fill="#3680f6"/>
    <path id="Vector-7" data-name="Vector" d="M3.048,0H0V4.319A4.479,4.479,0,0,0,3.048,0Z" transform="translate(0 27.375)" fill="#3680f6"/>
    <path id="Vector-8" data-name="Vector" d="M0,0V4.319H3.048A4.479,4.479,0,0,0,0,0Z" transform="translate(0 43.681)" fill="#3680f6"/>
    <path id="Vector-9" data-name="Vector" d="M3.048,4.319V0H0A4.479,4.479,0,0,0,3.048,4.319Z" transform="translate(32.67 27.375)" fill="#3680f6"/>
    <path id="Vector-10" data-name="Vector" d="M2.8,1.388A1.4,1.4,0,1,1,1.4,0,1.394,1.394,0,0,1,2.8,1.388Z" transform="translate(16.461 36.299)" fill="#3680f6"/>
    <path id="Vector-11" data-name="Vector" d="M29.414,0H6.3A7.694,7.694,0,0,1,0,7.659v5.308a7.694,7.694,0,0,1,6.3,7.658H29.414a7.694,7.694,0,0,1,6.3-7.659V7.658A7.694,7.694,0,0,1,29.414,0ZM10.889,11.719H8.076V8.906h2.813Zm6.97,2.795a4.2,4.2,0,1,1,4.211-4.2A4.211,4.211,0,0,1,17.859,14.513Zm9.779-2.795h-2.8V8.906h2.8Z" transform="translate(0 27.375)" fill="#3680f6"/>
    <path id="Vector-12" data-name="Vector" d="M0,4.319H3.048V0A4.479,4.479,0,0,0,0,4.319Z" transform="translate(32.67 43.681)" fill="#3680f6"/>
    <path id="Vector-13" data-name="Vector" d="M2.813,2.813H6.656V0H0V21.75H2.813Z" transform="translate(2.813 2.813)" fill="#3680f6"/>
    <path id="Vector-14" data-name="Vector" d="M3.844,18.938H0V21.75H6.656V0H3.844Z" transform="translate(38.531 23.455)" fill="#3680f6"/>
  </g>
</svg>
