<svg id="favorite_1" data-name="favorite 1" xmlns="http://www.w3.org/2000/svg" width="20" height="16.876" viewBox="0 0 20 16.876">
  <g id="Group">
    <path id="Vector" d="M18.2,0H1.8A1.8,1.8,0,0,0,0,1.8V11.953a1.8,1.8,0,0,0,1.8,1.8h.7v1.635a1.473,1.473,0,0,0,.866,1.352,1.5,1.5,0,0,0,.626.139,1.477,1.477,0,0,0,.964-.361l.033-.03L7.757,13.75H18.2a1.8,1.8,0,0,0,1.8-1.8V1.8A1.8,1.8,0,0,0,18.2,0ZM14.491,6.252,12.774,7.944a.2.2,0,0,0-.055.172l.406,2.391a.639.639,0,0,1-.154.542.625.625,0,0,1-.753.129l-2.126-1.13a.2.2,0,0,0-.183,0L7.8,11.17a.64.64,0,0,1-.568.023.625.625,0,0,1-.355-.672l.408-2.405a.2.2,0,0,0-.055-.172L5.509,6.252a.64.64,0,0,1-.192-.532.625.625,0,0,1,.53-.542l2.379-.349a.2.2,0,0,0,.147-.108l1.059-2.17A.64.64,0,0,1,9.88,2.2a.625.625,0,0,1,.682.339l1.066,2.183a.2.2,0,0,0,.147.108l2.379.349a.625.625,0,0,1,.53.542.64.64,0,0,1-.192.532Z" fill="#3680f6"/>
  </g>
</svg>
