<svg id="global-network_1" data-name="global-network 1" xmlns="http://www.w3.org/2000/svg" width="19.998" height="20" viewBox="0 0 19.998 20">
  <g id="Group">
    <path id="Vector" d="M6.594,5.8,4.118,3.325a2.212,2.212,0,1,0-.838.819L5.769,6.633A5.452,5.452,0,0,1,6.594,5.8Z" transform="translate(0 0.002)" fill="#3680f6"/>
    <path id="Vector-2" data-name="Vector" d="M.825,6.629,3.313,4.142a2.214,2.214,0,1,0-.836-.821L0,5.8a5.456,5.456,0,0,1,.825.832Z" transform="translate(13.4 0.002)" fill="#3680f6"/>
    <path id="Vector-3" data-name="Vector" d="M5.767,0,3.277,2.49a2.214,2.214,0,1,0,.839.818L6.591.833A5.456,5.456,0,0,1,5.767,0Z" transform="translate(0 13.364)" fill="#3680f6"/>
    <path id="Vector-4" data-name="Vector" d="M0,2.211H1.483a1.625,1.625,0,1,0,0-1.172H0a5.442,5.442,0,0,1,.032.588A5.441,5.441,0,0,1,0,2.211Z" transform="translate(15.375 8.374)" fill="#3680f6"/>
    <path id="Vector-5" data-name="Vector" d="M4.623,1.039H3.14a1.625,1.625,0,1,0,0,1.172H4.622a5.407,5.407,0,0,1,0-1.172Z" transform="translate(0 8.374)" fill="#3680f6"/>
    <path id="Vector-6" data-name="Vector" d="M2.055.023,2.047.015q-.209.016-.422.016T1.2.015L1.195.023,1.187.014,1.039,0V1.48a1.625,1.625,0,1,0,1.172,0V0L2.063.014Z" transform="translate(8.374 15.377)" fill="#3680f6"/>
    <path id="Vector-7" data-name="Vector" d="M2.211,4.625V3.14a1.625,1.625,0,1,0-1.172,0V4.625a5.407,5.407,0,0,1,1.172,0Z" transform="translate(8.374)" fill="#3680f6"/>
    <path id="Vector-8" data-name="Vector" d="M0,.832,2.476,3.308a2.212,2.212,0,1,0,.838-.819L.825,0A5.451,5.451,0,0,1,0,.832Z" transform="translate(13.403 13.368)" fill="#3680f6"/>
    <path id="Vector-9" data-name="Vector" d="M2.178,0H.057A8.811,8.811,0,0,0,.051,1.953H2.184a8.759,8.759,0,0,0,.051-.947A8.733,8.733,0,0,0,2.178,0Z" transform="translate(8.881 9.025)" fill="#3680f6"/>
    <path id="Vector-10" data-name="Vector" d="M1.639,0H0A4.3,4.3,0,0,0,2.328,1.9,7.949,7.949,0,0,1,1.639,0Z" transform="translate(6.303 12.149)" fill="#3680f6"/>
    <path id="Vector-11" data-name="Vector" d="M.712,1.915H2.365A4.3,4.3,0,0,0,0,0,7.881,7.881,0,0,1,.712,1.915Z" transform="translate(11.33 5.938)" fill="#3680f6"/>
    <path id="Vector-12" data-name="Vector" d="M1.924,1.953A4.272,4.272,0,0,0,2.037.977,4.272,4.272,0,0,0,1.924,0H0A9.869,9.869,0,0,1,.051,1.006q0,.481-.045.947H1.924Z" transform="translate(12.238 9.025)" fill="#3680f6"/>
    <path id="Vector-13" data-name="Vector" d="M1.653,1.915A7.882,7.882,0,0,1,2.365,0,4.3,4.3,0,0,0,0,1.915Z" transform="translate(6.304 5.938)" fill="#3680f6"/>
    <path id="Vector-14" data-name="Vector" d="M.689,0A7.947,7.947,0,0,1,0,1.9,4.3,4.3,0,0,0,2.327,0Z" transform="translate(11.367 12.149)" fill="#3680f6"/>
    <path id="Vector-15" data-name="Vector" d="M1.986,1.006A9.868,9.868,0,0,1,2.037,0H.113a4.289,4.289,0,0,0,0,1.953H2.031q-.045-.466-.046-.947Z" transform="translate(5.724 9.025)" fill="#3680f6"/>
    <path id="Vector-16" data-name="Vector" d="M0,1.856H1.671A6.17,6.17,0,0,0,.835,0,6.169,6.169,0,0,0,0,1.856Z" transform="translate(9.163 5.997)" fill="#3680f6"/>
    <path id="Vector-17" data-name="Vector" d="M1.7,0H0A6.2,6.2,0,0,0,.851,1.914,6.2,6.2,0,0,0,1.7,0Z" transform="translate(9.147 12.149)" fill="#3680f6"/>
  </g>
</svg>
