<svg width="221" height="68" viewBox="0 0 221 68" fill="none" xmlns="http://www.w3.org/2000/svg">
<path d="M77.5093 63.001V6.98535H94.3843V63.001H77.5093Z" fill="#232D53"/>
<path d="M158.212 34.29C158.212 39.9671 157.014 44.9932 154.619 49.3682C152.249 53.7171 148.85 57.0765 144.423 59.4463C139.996 61.8161 134.892 63.001 129.111 63.001H105.4V6.98535H128.603C148.343 6.98535 158.212 16.0869 158.212 34.29ZM140.283 34.4463C140.283 31.7119 139.723 29.251 138.603 27.0635C137.509 24.876 135.934 23.1833 133.876 21.9854C131.819 20.7874 129.397 20.1885 126.611 20.1885H122.275V49.7979H127.001C131.038 49.7979 134.254 48.4176 136.65 45.6572C139.072 42.8708 140.283 39.1338 140.283 34.4463Z" fill="#232D53"/>
<path d="M205.244 63.001L185.478 35.9697C183.916 33.8343 182.639 31.9072 181.65 30.1885H181.494C181.65 32.9489 181.728 36.0479 181.728 39.4854V63.001H166.103V6.98535H182.041L200.986 32.6885C201.22 33.027 201.507 33.4307 201.845 33.8994C202.184 34.3682 202.522 34.8499 202.861 35.3447C203.199 35.8395 203.512 36.3213 203.798 36.79C204.111 37.2588 204.345 37.6755 204.501 38.04H204.658C204.501 36.8942 204.423 34.915 204.423 32.1025V6.98535H220.048V63.001H205.244Z" fill="#232D53"/>
<path fill-rule="evenodd" clip-rule="evenodd" d="M14.7498 0.910156H65.0898V51.2502H14.7498V0.910156ZM16.2498 2.41016V49.7502H63.5898V2.41016H16.2498Z" fill="#3680F6"/>
<path fill-rule="evenodd" clip-rule="evenodd" d="M7.70996 8.83008H58.05V59.1701H7.70996V8.83008ZM9.20996 10.3301V57.6701H56.55V10.3301H9.20996Z" fill="#3680F6"/>
<path fill-rule="evenodd" clip-rule="evenodd" d="M0.669922 16.7505H51.0099V67.0905H0.669922V16.7505ZM2.16992 18.2505V65.5905H49.5099V18.2505H2.16992Z" fill="#3680F6"/>
</svg>
