<svg id="notification_1" data-name="notification 1" xmlns="http://www.w3.org/2000/svg" width="18.334" height="20" viewBox="0 0 18.334 20">
  <path id="Vector" d="M3.062,2.5A3.13,3.13,0,0,0,6.123,0H0A3.13,3.13,0,0,0,3.062,2.5Z" transform="translate(5.271 17.5)" fill="#3680f6"/>
  <path id="Vector-2" data-name="Vector" d="M14.177,8.333h-.01A5.84,5.84,0,0,1,8.334,2.5,5.781,5.781,0,0,1,8.891.028C8.708.011,8.522,0,8.334,0A5.833,5.833,0,0,0,2.5,5.833V8.157A5.588,5.588,0,0,1,.51,12.434a1.458,1.458,0,0,0-.458,1.5A1.529,1.529,0,0,0,1.551,15H15.113a1.528,1.528,0,0,0,1.523-1.156,1.461,1.461,0,0,0-.5-1.427,5.545,5.545,0,0,1-1.962-4.085Z" transform="translate(0 1.667)" fill="#3680f6"/>
  <path id="Vector-3" data-name="Vector" d="M8.333,4.167A4.167,4.167,0,1,1,4.167,0,4.167,4.167,0,0,1,8.333,4.167Z" transform="translate(10.001)" fill="#3680f6"/>
</svg>
