<svg xmlns="http://www.w3.org/2000/svg" width="55.773" height="44.056" viewBox="0 0 55.773 44.056">
  <g id="pay-per-click_1" data-name="pay-per-click 1" transform="translate(0 -1.969)">
    <path id="Vector" d="M19.884,0C8.92,0,0,7.679,0,17.117a14.925,14.925,0,0,0,.257,2.76l7.485-.951a5.59,5.59,0,0,1,.7-.044,5.179,5.179,0,0,1,3.39,1.208,3.8,3.8,0,0,1,1.352,3.519L11.627,32.69a22.631,22.631,0,0,0,8.257,1.544c10.964,0,19.883-7.678,19.883-17.117S30.848,0,19.884,0Zm1.634,25.114v1.375a1.533,1.533,0,0,1-1.634,1.406,1.533,1.533,0,0,1-1.634-1.406V25.119H15.855a1.533,1.533,0,0,1-1.634-1.406,1.533,1.533,0,0,1,1.634-1.406h5.406a2.063,2.063,0,0,0,2.2-1.892,2.063,2.063,0,0,0-2.2-1.891H18.506c-3.013,0-5.465-2.11-5.465-4.7,0-2.52,2.314-4.583,5.208-4.7V7.746a1.534,1.534,0,0,1,1.634-1.407,1.533,1.533,0,0,1,1.634,1.407V9.115h1.65A1.533,1.533,0,0,1,24.8,10.521a1.533,1.533,0,0,1-1.634,1.406H18.506a2.064,2.064,0,0,0-2.2,1.892,2.064,2.064,0,0,0,2.2,1.891h2.755c3.013,0,5.465,2.11,5.465,4.7,0,2.52-2.314,4.583-5.208,4.7Z" transform="translate(16.006 1.969)" fill="#3680f6"/>
    <path id="Vector-2" data-name="Vector" d="M24.21.015,7.758,2.107a1.591,1.591,0,0,0-1.313.95,1.271,1.271,0,0,0,.4,1.436L9.824,7.061,1.666,14.083a4.443,4.443,0,0,0,0,6.936A6.155,6.155,0,0,0,5.7,22.456a6.155,6.155,0,0,0,4.029-1.437L17.881,14l2.982,2.568a1.826,1.826,0,0,0,1.669.341,1.483,1.483,0,0,0,1.1-1.13l2.43-14.164A1.289,1.289,0,0,0,25.6.412,1.8,1.8,0,0,0,24.21.015Z" transform="translate(0 23.569)" fill="#3680f6"/>
  </g>
</svg>
