<svg xmlns="http://www.w3.org/2000/svg" width="15.234" height="20" viewBox="0 0 15.234 20">
  <path id="Vector" d="M1.758,20H13.477a1.76,1.76,0,0,0,1.758-1.758V5.859h-4.1A1.76,1.76,0,0,1,9.375,4.1V0H1.758A1.76,1.76,0,0,0,0,1.758V18.242A1.76,1.76,0,0,0,1.758,20ZM5.273,9.414h5.859a.586.586,0,0,1,0,1.172H5.273a.586.586,0,0,1,0-1.172Zm0,2.344h5.859a.586.586,0,0,1,0,1.172H5.273a.586.586,0,0,1,0-1.172Zm0,2.344h5.859a.586.586,0,0,1,0,1.172H5.273a.586.586,0,0,1,0-1.172ZM2.93,9.414A.586.586,0,1,1,2.344,10,.586.586,0,0,1,2.93,9.414Zm0,2.344a.586.586,0,1,1-.586.586A.586.586,0,0,1,2.93,11.758Zm0,2.344a.586.586,0,1,1-.586.586A.586.586,0,0,1,2.93,14.1Z" fill="#3680f6"/>
</svg>
