<svg id="videocall_2" data-name="videocall 2" xmlns="http://www.w3.org/2000/svg" width="20" height="20" viewBox="0 0 20 20">
  <path id="Vector" d="M0,3.133A4.531,4.531,0,0,0,1.25,0V3.883A3.924,3.924,0,0,0,.208,3.75H0Z" transform="translate(10 8.333)" fill="#3680f6"/>
  <path id="Vector-2" data-name="Vector" d="M10,1.667v12.5a1.672,1.672,0,0,1-1.667,1.667h-3.8a4.184,4.184,0,0,0-.375-1.25h3.55A1.042,1.042,0,0,0,8.75,13.542V2.292A1.042,1.042,0,0,0,7.708,1.25a.206.206,0,0,0-.208.208A1.465,1.465,0,0,1,6.042,2.917H3.958A1.465,1.465,0,0,1,2.5,1.458a.206.206,0,0,0-.208-.208A1.042,1.042,0,0,0,1.25,2.292V8.333A4.567,4.567,0,0,0,0,5.192V1.667A1.672,1.672,0,0,1,1.667,0H8.333A1.672,1.672,0,0,1,10,1.667Z" transform="translate(10 0)" fill="#3680f6"/>
  <path id="Vector-3" data-name="Vector" d="M1.25,2.5A1.25,1.25,0,1,1,2.5,1.25,1.252,1.252,0,0,1,1.25,2.5Z" transform="translate(13.75 5)" fill="#3680f6"/>
  <path id="Vector-4" data-name="Vector" d="M4.375,2.5H.625A.625.625,0,0,1,0,1.875,1.877,1.877,0,0,1,1.875,0h1.25A1.877,1.877,0,0,1,5,1.875.625.625,0,0,1,4.375,2.5Z" transform="translate(12.5 8.333)" fill="#3680f6"/>
  <path id="Vector-5" data-name="Vector" d="M3.333,6.667A3.333,3.333,0,1,1,6.667,3.333,3.337,3.337,0,0,1,3.333,6.667Z" transform="translate(3.334 5)" fill="#3680f6"/>
  <path id="Vector-6" data-name="Vector" d="M12.708,6.667H.625A.625.625,0,0,1,0,6.042V3.125A3.128,3.128,0,0,1,3.125,0h7.083a3.128,3.128,0,0,1,3.125,3.125V6.042A.625.625,0,0,1,12.708,6.667Z" transform="translate(0 13.333)" fill="#3680f6"/>
</svg>
