<svg id="join-files-button_1" data-name="join-files-button 1" xmlns="http://www.w3.org/2000/svg" width="19.889" height="20" viewBox="0 0 19.889 20">
  <g id="Group">
    <path id="Vector" d="M18.283,0H7.558A1.608,1.608,0,0,0,5.951,1.607V5.95H1.606A1.608,1.608,0,0,0,0,7.557V18.283a1.608,1.608,0,0,0,1.606,1.606H9.674c-.01-.049-.022-.1-.028-.146l-.22-1.889H2.036V7.986H5.951v4.345a1.608,1.608,0,0,0,1.607,1.606H8.971L8.733,11.9H7.987V7.986H11.9V9.215l2.036,1V7.556A1.608,1.608,0,0,0,12.333,5.95H7.987V2.036h9.866V11.9h-.469l1.98.971a1.827,1.827,0,0,1,.329.213,1.59,1.59,0,0,0,.2-.755V1.607A1.608,1.608,0,0,0,18.283,0Z" fill="#3680f6"/>
    <path id="Vector-2" data-name="Vector" d="M8.823,4.043.674.048A.472.472,0,0,0,.468,0,.467.467,0,0,0,0,.522L1.052,9.539a.468.468,0,0,0,.336.4.454.454,0,0,0,.129.019.468.468,0,0,0,.365-.176L4.624,6.344,8.77,4.906a.468.468,0,0,0,.053-.862Z" transform="translate(9.942 10.047)" fill="#3680f6"/>
  </g>
</svg>
